<svg width="47" height="50" viewBox="0 0 47 50" fill="none" xmlns="http://www.w3.org/2000/svg">
<g clip-path="url(#clip0)">
<path d="M14.9347 8.78906H9.50414C8.75435 8.78906 8.14648 9.44492 8.14648 10.2539C8.14648 11.0629 8.75435 11.7188 9.50414 11.7188H14.9347C15.6845 11.7188 16.2924 11.0629 16.2924 10.2539C16.2924 9.44492 15.6845 8.78906 14.9347 8.78906Z" fill="#1CB4DB"/>
<path d="M14.9347 17.5781H9.50414C8.75435 17.5781 8.14648 18.234 8.14648 19.043C8.14648 19.852 8.75435 20.5078 9.50414 20.5078H14.9347C15.6845 20.5078 16.2924 19.852 16.2924 19.043C16.2924 18.234 15.6845 17.5781 14.9347 17.5781Z" fill="#1CB4DB"/>
<path d="M17.8311 26.5625H9.50414C8.75435 26.5625 8.14648 27.2184 8.14648 28.0273C8.14648 28.8363 8.75435 29.4922 9.50414 29.4922H17.8311C18.5809 29.4922 19.1887 28.8363 19.1887 28.0273C19.1887 27.2184 18.5809 26.5625 17.8311 26.5625Z" fill="#1CB4DB"/>
<path d="M34.1229 35.3516H9.50414C8.75435 35.3516 8.14648 36.0074 8.14648 36.8164C8.14648 37.6254 8.75435 38.2812 9.50414 38.2812H34.1229C34.8727 38.2812 35.4805 37.6254 35.4805 36.8164C35.4805 36.0074 34.8727 35.3516 34.1229 35.3516Z" fill="#1CB4DB"/>
<path d="M39.5529 0H6.78826C4.54243 0 2.7153 1.97139 2.7153 4.39453V41.2109H1.35765C0.607866 41.2109 0 41.8668 0 42.6758V44.1406C0 47.3715 2.43617 50 5.43061 50H35.48C38.4744 50 40.9106 47.3715 40.9106 44.1406V11.7188H44.9835C45.7333 11.7188 46.3412 11.0629 46.3412 10.2539V7.32422C46.3412 3.28564 43.296 0 39.5529 0ZM5.43061 47.0703C3.93339 47.0703 2.7153 45.7561 2.7153 44.1406H30.0494C30.0494 45.207 30.3149 46.208 30.7782 47.0703H5.43061ZM38.1953 10.2539V44.1406C38.1953 45.7561 36.9772 47.0703 35.48 47.0703C33.9828 47.0703 32.7647 45.7561 32.7647 44.1406V42.6758C32.7647 41.8668 32.1568 41.2109 31.407 41.2109H5.43061V4.39453C5.43061 3.58682 6.03965 2.92969 6.78826 2.92969H38.1953V10.2539ZM43.6259 8.78906H40.9106V3.18066C42.491 3.78525 43.6259 5.41445 43.6259 7.32422V8.78906Z" fill="#1CB4DB"/>
<path d="M27.3334 5.85938C22.8418 5.85938 19.1875 9.80215 19.1875 14.6484C19.1875 17.2456 20.2373 19.5829 21.9028 21.1934V30.957C21.9028 31.4973 22.1784 31.9937 22.6198 32.2485C23.0612 32.5034 23.597 32.4755 24.0135 32.1759L27.3334 29.7879L30.6533 32.1759C30.8805 32.3393 31.1431 32.4219 31.4065 32.4219C31.6261 32.4219 31.8462 32.3645 32.047 32.2485C32.4884 31.9937 32.764 31.4973 32.764 30.957V21.1934C34.4295 19.5829 35.4793 17.2456 35.4793 14.6484C35.4793 9.80215 31.8251 5.85938 27.3334 5.85938ZM30.0487 28.2199L28.0865 26.8085C27.6304 26.4806 27.0364 26.4806 26.5803 26.8085L24.6181 28.2199V22.9348C25.4678 23.2599 26.3817 23.4375 27.3334 23.4375C28.2851 23.4375 29.199 23.2599 30.0487 22.9348V28.2199ZM27.3334 20.5078C24.339 20.5078 21.9028 17.8793 21.9028 14.6484C21.9028 11.4176 24.339 8.78906 27.3334 8.78906C30.3278 8.78906 32.764 11.4176 32.764 14.6484C32.764 17.8793 30.3278 20.5078 27.3334 20.5078Z" fill="#1CB4DB"/>
</g>
<defs>
<clipPath id="clip0">
<rect width="46.3412" height="50" fill="white"/>
</clipPath>
</defs>
</svg>
