<svg width="50" height="50" viewBox="0 0 50 50" fill="none" xmlns="http://www.w3.org/2000/svg">
<path d="M48.5352 32.3242H46.9223C46.4962 25.9567 43.3098 20.0615 38.1836 16.2113V16.2109C38.1836 13.7878 36.2122 11.8164 33.7891 11.8164H32.0724C31.4674 10.1116 29.8393 8.88672 27.9297 8.88672H22.0703C20.1607 8.88672 18.5326 10.1116 17.9276 11.8164H16.2109C13.7878 11.8164 11.8164 13.7878 11.8164 16.2109C6.6906 20.0615 3.5038 25.9567 3.0777 32.3242H1.46484C0.655746 32.3242 0 32.98 0 33.7891V39.6484C0 40.4575 0.655746 41.1133 1.46484 41.1133H48.5352C49.3443 41.1133 50 40.4575 50 39.6484V33.7891C50 32.98 49.3443 32.3242 48.5352 32.3242ZM11.8164 20.05V25C11.8164 25.8091 12.4722 26.4648 13.2812 26.4648C14.0903 26.4648 14.7461 25.8091 14.7461 25V16.2109C14.7461 15.4034 15.4034 14.7461 16.2109 14.7461H17.6758V22.0703C17.6758 22.8794 18.3315 23.5352 19.1406 23.5352C19.9497 23.5352 20.6055 22.8794 20.6055 22.0703V13.2812C20.6055 12.4737 21.2627 11.8164 22.0703 11.8164H27.9297C28.7373 11.8164 29.3945 12.4737 29.3945 13.2812V22.0703C29.3945 22.8794 30.0503 23.5352 30.8594 23.5352C31.6685 23.5352 32.3242 22.8794 32.3242 22.0703V14.7461H33.7891C34.5966 14.7461 35.2539 15.4034 35.2539 16.2109V25C35.2539 25.8091 35.9097 26.4648 36.7188 26.4648C37.5278 26.4648 38.1836 25.8091 38.1836 25V20.0497C41.5451 23.2796 43.623 27.6489 43.9842 32.3242H6.01578C6.37703 27.6489 8.4549 23.28 11.8164 20.05ZM47.0703 38.1836H2.92969V35.2539H47.0703V38.1836Z" fill="#1CB4DB"/>
</svg>
