<svg width="51" height="50" viewBox="0 0 51 50" fill="none" xmlns="http://www.w3.org/2000/svg">
<path d="M48.1974 37.5386C43.7224 33.0628 44.0159 33.3463 43.8899 33.2533L32.0445 24.506L36.6397 19.9103C40.3343 21.227 44.5172 20.3167 47.3323 17.501C50.3993 14.4335 51.2044 9.7436 49.3356 5.83103C48.9001 4.91943 47.6922 4.71295 46.9788 5.42666L43.1906 9.21557C42.6197 9.78657 41.6909 9.78667 41.1196 9.21557C40.5472 8.64309 40.5472 7.71675 41.1196 7.14427L44.9079 3.35527C45.6221 2.64097 45.4144 1.43313 44.5036 0.998081C40.5918 -0.871025 35.9029 -0.0657933 32.8358 3.00169C30.02 5.81804 29.1109 10.0019 30.427 13.6962L25.1274 18.9963C24.0484 18.1569 25.4722 19.5907 15.3096 8.81266L16.3749 7.74712C17.0488 7.07326 16.9083 5.94492 16.0929 5.45557L8.24973 0.748717C6.19377 -0.485111 3.57394 -0.162589 1.87853 1.53314C0.183212 3.22878 -0.139347 5.8493 1.09425 7.90555L5.80021 15.7503C6.29025 16.5675 7.41887 16.705 8.09133 16.0324L9.09602 15.0275C19.206 25.7498 17.8753 24.2933 18.6745 25.3212C18.6935 25.3455 18.7146 25.367 18.7347 25.3898L14.0354 30.0897C10.342 28.7733 6.15861 29.6826 3.34298 32.4989C0.275986 35.5665 -0.529094 40.2563 1.33976 44.1689C1.7754 45.0806 2.98302 45.2869 3.6966 44.5733L7.48479 40.7843C8.05598 40.2132 8.98479 40.2134 9.55578 40.7843C10.1281 41.3568 10.1281 42.2831 9.55578 42.8556L5.7674 46.6446C5.05314 47.3589 5.26095 48.5667 6.1717 49.0019C7.57775 49.6737 9.08381 50 10.5793 50C13.2444 49.9999 15.8748 48.9632 17.8395 46.9983C20.6553 44.1819 21.5644 39.998 20.2483 36.3036L24.2616 32.2899L33.6057 43.6475C33.6768 43.7337 33.4422 43.4936 37.6215 47.6736C39.1428 49.1953 41.1655 49.9841 43.1545 49.9841C44.6138 49.9841 46.0552 49.559 47.2658 48.6871C50.9602 46.0257 51.3958 40.7373 48.1974 37.5386ZM10.1922 11.9206C9.62454 11.3186 8.67287 11.3081 8.09133 11.8898L7.3465 12.6347L3.60558 6.39843C3.06476 5.49689 3.20607 4.34794 3.94943 3.60444C4.69279 2.86084 5.84152 2.7196 6.74279 3.26052L12.9779 7.00225L12.233 7.74702C11.673 8.30719 11.6597 9.21127 12.2032 9.78755C23.8801 22.1716 22.0433 20.3081 23.0402 21.0836L20.8178 23.3062C20.0497 22.3184 21.8331 24.2665 10.1922 11.9206ZM17.4859 34.9238C17.047 35.3627 16.9325 36.0306 17.2 36.5908C18.5349 39.3855 17.9595 42.7354 15.7686 44.9268C14.3649 46.3307 12.486 47.0715 10.5819 47.0713C10.2394 47.0713 9.89622 47.0474 9.55471 46.9989L11.6266 44.9267C13.3435 43.2095 13.3438 40.43 11.6266 38.7127C9.91379 36.9995 7.12658 36.9996 5.41379 38.7127L3.34191 40.785C3.02472 38.5448 3.75773 36.2265 5.41379 34.5701C7.60481 32.3786 10.954 31.8034 13.7482 33.1383C14.3081 33.4058 14.9758 33.2914 15.4149 32.8524L33.1893 15.0759C33.6282 14.6369 33.7427 13.969 33.4753 13.4088C32.1404 10.6143 32.7158 7.26422 34.9067 5.07288C36.5631 3.41632 38.8807 2.68327 41.1204 3.00061L39.0485 5.07288C38.2187 5.90273 37.7617 7.00626 37.7617 8.17992C37.7617 9.35358 38.2187 10.4569 39.0485 11.287C40.7613 13.0002 43.5485 13.0001 45.2613 11.287L47.3332 9.21469C47.6504 11.4549 46.9174 13.7732 45.2613 15.4295C43.0703 17.621 39.721 18.1964 36.9268 16.8614C36.3671 16.5938 35.6992 16.7083 35.2602 17.1473L17.4859 34.9238ZM26.3361 30.2151L29.9502 26.6005L33.6338 29.3206L29.2329 33.7223C26.2407 30.0855 26.4274 30.3046 26.3361 30.2151ZM45.5541 46.3101C43.8461 47.5405 41.326 47.2364 39.6922 45.6023L35.8219 41.7314L31.1024 35.9949L36.0163 31.0801L42.0622 35.5447L46.1264 39.6098C47.9842 41.4679 47.8648 44.6456 45.5541 46.3101Z" fill="#1CB4DB"/>
</svg>
