<svg width="50" height="50" viewBox="0 0 50 50" fill="none" xmlns="http://www.w3.org/2000/svg">
<g clip-path="url(#clip0)">
<path d="M45.0059 28.4446V27.611C45.0059 25.4177 43.2215 23.6333 41.0282 23.6333H34.2228C34.1019 22.7887 33.7137 22.0088 33.0994 21.3946C32.8617 21.1569 32.5958 20.9538 32.3105 20.785V17.0618C35.3068 15.4576 37.1934 12.349 37.1934 8.88851C37.1934 4.86947 34.6299 1.32728 30.8146 0.0741534C29.8686 -0.236491 28.8926 0.468978 28.8926 1.46585V8.74398H26.9395V1.46575C26.9395 0.468489 25.9627 -0.236686 25.0174 0.0741534C21.2123 1.32425 18.6489 4.85628 18.6387 8.86351C18.6304 12.3527 20.5881 15.4655 23.5215 17.052V20.2443C21.6495 20.3549 20.1251 21.2193 19.721 21.5787L15.9146 24.9634H6.45898C5.65 24.9634 4.99414 25.6193 4.99414 26.4283V44.7765C4.99414 45.5855 5.65 46.2413 6.45898 46.2413H13.7344C15.4915 46.2413 17.3857 47.2266 19.2177 48.1793C20.7404 48.9712 22.5243 50 25.3311 50H38.0984C40.2917 50 42.0761 48.2157 42.0761 46.0224V45.1888C42.0761 44.4874 41.8929 43.8283 41.573 43.2555C42.4747 42.5257 43.0526 41.4109 43.0526 40.1631V39.3295C43.0526 38.6282 42.8694 37.9691 42.5495 37.3963C43.4513 36.6665 44.0292 35.5518 44.0292 34.304V33.4701C44.0292 32.7688 43.846 32.1097 43.5261 31.5369C44.4279 30.8072 45.0059 29.6923 45.0059 28.4446ZM42.0762 27.611V28.4446C42.0762 29.0224 41.6061 29.4926 41.0282 29.4926C40.285 29.4926 35.094 29.4926 34.2637 29.4926V26.563H41.0282C41.6061 26.563 42.0762 27.0331 42.0762 27.611ZM41.0996 33.4701V34.304C41.0996 34.8818 40.6296 35.3519 40.0518 35.3519C39.4396 35.3519 34.8596 35.3519 34.1995 35.3519C34.2409 35.1102 34.2636 34.8621 34.2636 34.6088V32.4222H40.0517C40.6295 32.4222 41.0996 32.8923 41.0996 33.4701ZM40.123 39.3295V40.1631C40.123 40.7409 39.6529 41.2112 39.0751 41.2112C38.3601 41.2112 33.5515 41.2112 32.7985 41.2112C31.9908 41.2112 31.3337 40.554 31.3337 39.7463C31.3337 38.9386 31.9908 38.2815 32.7985 38.2815H32.7988H39.0751C39.6529 38.2815 40.123 38.7517 40.123 39.3295ZM21.5684 8.87083C21.5734 6.87698 22.5023 5.05501 24.0098 3.8805V8.88167C24.0098 10.4211 25.2623 11.6736 26.8018 11.6736H29.0303C30.5698 11.6736 31.8223 10.4211 31.8223 8.88167V3.88001C33.3344 5.05765 34.2637 6.88665 34.2637 8.88851C34.2637 11.4894 32.7064 13.7998 30.2964 14.7746C29.743 14.9985 29.3809 15.5357 29.3809 16.1326V20.2301H26.4512V16.1267C26.4512 15.5315 26.091 14.9955 25.54 14.7705C23.1583 13.7981 21.5622 11.427 21.5684 8.87083ZM20.5695 45.5802C18.525 44.5169 16.2077 43.3116 13.7344 43.3116H7.92383V27.893H16.4717C16.8306 27.893 17.177 27.7613 17.4451 27.5229L21.583 23.8434C22.2961 23.3958 23.1168 23.1597 23.9629 23.1597H30.2881C30.8643 23.1597 31.334 23.626 31.334 24.2046V34.6088C31.334 35.4165 30.6769 36.0737 29.8691 36.0737C29.0603 36.0737 28.4043 35.4176 28.4043 34.6088V29.4789C28.4043 28.7172 27.8256 28.0552 27.0665 27.9918C26.311 27.9287 25.6383 28.4251 25.5071 29.17C25.4258 29.4771 24.7397 31.5523 21.0791 31.5523C20.2701 31.5523 19.6143 32.2081 19.6143 33.0171C19.6143 33.8261 20.2701 34.482 21.0791 34.482C23.0167 34.482 24.442 34.029 25.4746 33.4444V34.609C25.4746 36.578 26.7631 38.2226 28.5104 38.7889C28.1985 40.1859 28.5824 41.6227 29.5266 42.6761C28.4489 43.8783 28.1203 45.5604 28.656 47.0705H25.3311C23.3314 47.0704 22.0931 46.3727 20.5695 45.5802ZM39.1465 46.0224C39.1465 46.6002 38.6764 47.0704 38.0985 47.0704H32.7988H32.7985C31.9908 47.0704 31.3337 46.4133 31.3337 45.6056C31.3337 44.7979 31.9908 44.1408 32.7985 44.1408H38.0985C38.6764 44.1408 39.1465 44.6109 39.1465 45.1888V46.0224Z" fill="#1CB4DB"/>
</g>
<defs>
<clipPath id="clip0">
<rect width="50" height="50" fill="white"/>
</clipPath>
</defs>
</svg>
