<svg width="50" height="50" viewBox="0 0 50 50" fill="none" xmlns="http://www.w3.org/2000/svg">
<path d="M30.7617 8.88672H19.043C18.234 8.88672 17.5781 9.54258 17.5781 10.3516C17.5781 11.1605 18.234 11.8164 19.043 11.8164H30.7617C31.5707 11.8164 32.2266 11.1605 32.2266 10.3516C32.2266 9.54258 31.5707 8.88672 30.7617 8.88672Z" fill="#1CB4DB"/>
<path d="M30.7617 14.7461H19.043C18.234 14.7461 17.5781 15.402 17.5781 16.2109C17.5781 17.0199 18.234 17.6758 19.043 17.6758H30.7617C31.5707 17.6758 32.2266 17.0199 32.2266 16.2109C32.2266 15.402 31.5707 14.7461 30.7617 14.7461Z" fill="#1CB4DB"/>
<path d="M30.7617 20.6055H7.32422C6.51523 20.6055 5.85938 21.2613 5.85938 22.0703C5.85938 22.8793 6.51523 23.5352 7.32422 23.5352H30.7617C31.5707 23.5352 32.2266 22.8793 32.2266 22.0703C32.2266 21.2613 31.5707 20.6055 30.7617 20.6055Z" fill="#1CB4DB"/>
<path d="M25.4514 26.4648H7.32422C6.51523 26.4648 5.85938 27.1207 5.85938 27.9297C5.85938 28.7387 6.51523 29.3945 7.32422 29.3945H25.4514C26.2604 29.3945 26.9162 28.7387 26.9162 27.9297C26.9162 27.1207 26.2604 26.4648 25.4514 26.4648Z" fill="#1CB4DB"/>
<path d="M38.1836 26.4648V4.39453C38.1836 1.96563 36.1234 0 33.6914 0H13.1834C12.812 0 12.43 0.146875 12.1436 0.433398L0.424805 12.2498C0.155566 12.5212 0 12.8986 0 13.2812V45.6055C0 48.0286 1.97139 50 4.39453 50C7.48496 50 8.51113 50 8.50674 50C12.9992 50 21.8393 50 38.1836 50C44.6517 50 50 44.6744 50 38.1836C50 31.7219 44.6992 26.4648 38.1836 26.4648ZM11.7188 5.02217V11.8164H4.98066L11.7188 5.02217ZM4.39453 47.0703C3.58682 47.0703 2.92969 46.4132 2.92969 45.6055V14.7461H13.1836C13.9926 14.7461 14.6484 14.0902 14.6484 13.2812V2.92969H33.6914C34.5237 2.92969 35.2539 3.61416 35.2539 4.39453V26.8296C32.1447 27.619 29.5257 29.6348 27.9534 32.3242H7.32422C6.51523 32.3242 5.85938 32.9801 5.85938 33.7891C5.85938 34.598 6.51523 35.2539 7.32422 35.2539H26.741C26.4971 36.1906 26.3672 37.1724 26.3672 38.1836H7.32422C6.51523 38.1836 5.85938 38.8395 5.85938 39.6484C5.85938 40.4574 6.51523 41.1133 7.32422 41.1133H26.7388C27.3309 43.404 28.611 45.4687 30.4382 47.0703H4.39453ZM38.1836 47.0703C33.3665 47.0703 29.2969 43.0007 29.2969 38.1836C29.2969 33.3373 33.2834 29.3945 38.1836 29.3945C43.0838 29.3945 47.0703 33.3373 47.0703 38.1836C47.0703 43.0007 43.0007 47.0703 38.1836 47.0703Z" fill="#1CB4DB"/>
<path d="M43.7201 35.6916C43.1529 35.1149 42.2254 35.1072 41.6485 35.6744L36.7104 40.5317L34.71 38.5958C34.1287 38.0332 33.2013 38.0485 32.6387 38.6298C32.0762 39.2112 32.0914 40.1385 32.6727 40.7011L35.7001 43.6308C36.2711 44.1834 37.179 44.1801 37.746 43.6225L43.703 37.7631C44.2798 37.1958 44.2874 36.2684 43.7201 35.6916Z" fill="#1CB4DB"/>
</svg>
