<svg width="50" height="50" viewBox="0 0 50 50" fill="none" xmlns="http://www.w3.org/2000/svg">
<path d="M35.2539 16.2109C35.2539 10.5421 30.6527 5.85938 25 5.85938C19.3546 5.85938 14.7461 10.5355 14.7461 16.2109C14.7461 21.8649 19.346 26.4648 25 26.4648C30.654 26.4648 35.2539 21.8649 35.2539 16.2109ZM17.6758 16.2109C17.6758 12.1185 20.9614 8.78906 25 8.78906C29.0386 8.78906 32.3242 12.1185 32.3242 16.2109C32.3242 20.2495 29.0386 23.5352 25 23.5352C20.9614 23.5352 17.6758 20.2495 17.6758 16.2109Z" fill="#1CB4DB"/>
<path d="M41.1133 16.2109C41.1133 7.32305 33.8983 0 25 0C16.6001 0 8.88672 6.71074 8.88672 16.2109C8.88672 22.1342 14.6861 31.0851 18.1295 36.0034C14.3017 36.7728 8.88672 38.7594 8.88672 42.6758C8.88672 48.2764 19.3185 50 25 50C30.682 50 41.1133 48.2763 41.1133 42.6758C41.1133 38.7592 35.6979 36.7727 31.8705 36.0034C35.2962 31.1103 41.1133 22.141 41.1133 16.2109ZM11.8164 16.2109C11.8164 8.00752 18.6597 2.92969 25 2.92969C32.2694 2.92969 38.1836 8.8876 38.1836 16.2109C38.1836 22.4145 29.5154 34.6428 24.9999 40.3462C20.484 34.6439 11.8164 22.4183 11.8164 16.2109ZM38.1836 42.6758C38.1836 45.1231 31.0097 47.0703 25 47.0703C18.9983 47.0703 11.8164 45.1216 11.8164 42.6758C11.8164 41.5099 14.4332 39.4887 20.0273 38.6443C22.1639 41.5436 23.772 43.4896 23.8722 43.6105C24.1504 43.9463 24.5639 44.1406 25 44.1406C25.4361 44.1406 25.8496 43.9463 26.1278 43.6105C26.228 43.4896 27.8361 41.5436 29.9727 38.6443C35.5668 39.4887 38.1836 41.5099 38.1836 42.6758Z" fill="#1CB4DB"/>
</svg>
