<svg width="49" height="43" viewBox="0 0 49 43" fill="none" xmlns="http://www.w3.org/2000/svg">
<path d="M22.8133 25.375V16.9375C22.8133 16.49 22.9911 16.0607 23.3076 15.7443C23.624 15.4278 24.0533 15.25 24.5008 15.25C24.9484 15.25 25.3776 15.4278 25.6941 15.7443C26.0105 16.0607 26.1883 16.49 26.1883 16.9375V25.375C26.1883 25.8226 26.0105 26.2518 25.6941 26.5683C25.3776 26.8847 24.9484 27.0625 24.5008 27.0625C24.0533 27.0625 23.624 26.8847 23.3076 26.5683C22.9911 26.2518 22.8133 25.8226 22.8133 25.375ZM47.4441 39.7147C47.004 40.4886 46.3658 41.1312 45.595 41.5765C44.8242 42.0218 43.9486 42.2537 43.0585 42.2483H5.94317C5.05408 42.2483 4.18067 42.0141 3.41083 41.5693C2.64098 41.1246 2.00184 40.4849 1.55772 39.7147C1.11359 38.9444 0.880147 38.0708 0.880861 37.1818C0.881575 36.2927 1.11643 35.4194 1.56179 34.6499L20.1194 2.58891C20.5641 1.8206 21.203 1.18274 21.9721 0.739305C22.7411 0.295866 23.6132 0.062439 24.5009 0.062439C25.3886 0.062439 26.2607 0.295866 27.0298 0.739305C27.7988 1.18274 28.4377 1.8206 28.8824 2.58891L47.4398 34.6497C47.8904 35.4175 48.1283 36.2914 48.1291 37.1817C48.1298 38.0719 47.8934 38.9462 47.4441 39.7147ZM44.5188 36.3404L25.9613 4.27957C25.8131 4.02345 25.6002 3.81082 25.3438 3.66299C25.0875 3.51517 24.7967 3.43735 24.5008 3.43735C24.2049 3.43735 23.9142 3.51517 23.6578 3.66299C23.4015 3.81082 23.1885 4.02345 23.0403 4.27957L4.48285 36.3404C4.33437 36.5969 4.25606 36.888 4.25579 37.1843C4.25553 37.4807 4.33333 37.7719 4.48136 38.0287C4.62939 38.2854 4.84243 38.4987 5.09904 38.6469C5.35566 38.7952 5.6468 38.8733 5.94317 38.8733H43.0585C43.3548 38.8733 43.646 38.7952 43.9026 38.6469C44.1592 38.4987 44.3722 38.2854 44.5203 38.0287C44.6683 37.7719 44.7461 37.4807 44.7458 37.1843C44.7456 36.888 44.6673 36.5969 44.5188 36.3404ZM24.5008 30.4375C24.0002 30.4375 23.5108 30.586 23.0945 30.8641C22.6783 31.1422 22.3538 31.5376 22.1622 32.0001C21.9707 32.4626 21.9205 32.9716 22.0182 33.4626C22.1159 33.9536 22.357 34.4046 22.711 34.7586C23.065 35.1126 23.516 35.3537 24.007 35.4514C24.498 35.549 25.007 35.4989 25.4695 35.3073C25.932 35.1157 26.3273 34.7913 26.6055 34.375C26.8836 33.9588 27.0321 33.4694 27.0321 32.9688C27.0321 32.2974 26.7654 31.6536 26.2907 31.1789C25.816 30.7042 25.1721 30.4375 24.5008 30.4375Z" fill="#FF543E"/>
</svg>
