<svg width="44" height="36" viewBox="0 0 44 36" fill="none" xmlns="http://www.w3.org/2000/svg">
<path d="M1.23964 1.03451C0.706401 1.1783 0.390695 1.72715 0.534489 2.26038C0.678283 2.79362 1.22713 3.10933 1.76036 2.96553L1.23964 1.03451ZM34.7573 35.6697C35.1271 36.0798 35.7595 36.1125 36.1696 35.7427L42.8538 29.716C43.264 29.3462 43.2967 28.7138 42.9269 28.3037C42.5571 27.8935 41.9247 27.8608 41.5146 28.2306L35.5731 33.5877L30.216 27.6462C29.8461 27.236 29.2138 27.2033 28.8036 27.5731C28.3935 27.943 28.3607 28.5753 28.7306 28.9855L34.7573 35.6697ZM1.76036 2.96553C8.92622 1.03317 17.4736 2.01148 24.025 6.92502C30.5366 11.8088 35.238 20.7054 34.5013 34.9484L36.4987 35.0517C37.262 20.2946 32.38 10.6913 25.225 5.32502C18.1097 -0.0114444 8.90711 -1.03312 1.23964 1.03451L1.76036 2.96553Z" fill="#1CB4DB"/>
</svg>
