<svg width="36" height="44" viewBox="0 0 36 44" fill="none" xmlns="http://www.w3.org/2000/svg">
<path d="M0.996303 42.3375C1.1401 42.8707 1.68894 43.1865 2.22218 43.0427C2.75541 42.8989 3.07112 42.35 2.92732 41.8168L0.996303 42.3375ZM35.6315 8.81984C36.0416 8.45 36.0743 7.81769 35.7045 7.40751L29.6778 0.723316C29.3079 0.313141 28.6756 0.280434 28.2655 0.650265C27.8553 1.0201 27.8226 1.65242 28.1924 2.06259L33.5495 8.0041L27.608 13.3612C27.1978 13.731 27.1651 14.3633 27.5349 14.7735C27.9048 15.1837 28.5371 15.2164 28.9473 14.8466L35.6315 8.81984ZM2.92732 41.8168C0.994958 34.6509 1.97327 26.1035 6.88681 19.5521C11.7705 13.0405 20.6672 8.33911 34.9102 9.07581L35.0135 7.07848C20.2564 6.31519 10.6531 11.1971 5.28681 18.3521C-0.0496525 25.4674 -1.07133 34.67 0.996303 42.3375L2.92732 41.8168Z" fill="#50C55F"/>
</svg>
