<svg width="50" height="50" viewBox="0 0 50 50" fill="none" xmlns="http://www.w3.org/2000/svg">
<path d="M16.1133 8.78906H10.2539C9.44492 8.78906 8.78906 9.44492 8.78906 10.2539C8.78906 11.0629 9.44492 11.7188 10.2539 11.7188H16.1133C16.9223 11.7188 17.5781 11.0629 17.5781 10.2539C17.5781 9.44492 16.9223 8.78906 16.1133 8.78906Z" fill="#1CB4DB"/>
<path d="M16.1133 17.5781H10.2539C9.44492 17.5781 8.78906 18.234 8.78906 19.043C8.78906 19.852 9.44492 20.5078 10.2539 20.5078H16.1133C16.9223 20.5078 17.5781 19.852 17.5781 19.043C17.5781 18.234 16.9223 17.5781 16.1133 17.5781Z" fill="#1CB4DB"/>
<path d="M19.2383 26.5625H10.2539C9.44492 26.5625 8.78906 27.2184 8.78906 28.0273C8.78906 28.8363 9.44492 29.4922 10.2539 29.4922H19.2383C20.0473 29.4922 20.7031 28.8363 20.7031 28.0273C20.7031 27.2184 20.0473 26.5625 19.2383 26.5625Z" fill="#1CB4DB"/>
<path d="M36.8164 35.3516H10.2539C9.44492 35.3516 8.78906 36.0074 8.78906 36.8164C8.78906 37.6254 9.44492 38.2812 10.2539 38.2812H36.8164C37.6254 38.2812 38.2812 37.6254 38.2812 36.8164C38.2812 36.0074 37.6254 35.3516 36.8164 35.3516Z" fill="#1CB4DB"/>
<path d="M42.6758 0H7.32422C4.90107 0 2.92969 1.97139 2.92969 4.39453V41.2109H1.46484C0.655859 41.2109 0 41.8668 0 42.6758V44.1406C0 47.3715 2.62852 50 5.85938 50H38.2812C41.5121 50 44.1406 47.3715 44.1406 44.1406V11.7188H48.5352C49.3441 11.7188 50 11.0629 50 10.2539V7.32422C50 3.28564 46.7144 0 42.6758 0ZM5.85938 47.0703C4.24395 47.0703 2.92969 45.7561 2.92969 44.1406H32.4219C32.4219 45.207 32.7084 46.208 33.2082 47.0703H5.85938ZM41.2109 10.2539V44.1406C41.2109 45.7561 39.8967 47.0703 38.2812 47.0703C36.6658 47.0703 35.3516 45.7561 35.3516 44.1406V42.6758C35.3516 41.8668 34.6957 41.2109 33.8867 41.2109H5.85938V4.39453C5.85938 3.58682 6.5165 2.92969 7.32422 2.92969H41.2109V10.2539ZM47.0703 8.78906H44.1406V3.18066C45.8458 3.78525 47.0703 5.41445 47.0703 7.32422V8.78906Z" fill="#1CB4DB"/>
<path d="M29.4922 5.85938C24.6459 5.85938 20.7031 9.80215 20.7031 14.6484C20.7031 17.2456 21.8358 19.5829 23.6328 21.1934V30.957C23.6328 31.4973 23.9302 31.9937 24.4064 32.2485C24.8827 32.5034 25.4607 32.4755 25.9102 32.1759L29.4922 29.7879L33.0742 32.1759C33.3193 32.3393 33.6026 32.4219 33.8868 32.4219C34.1238 32.4219 34.3613 32.3645 34.5779 32.2485C35.0542 31.9937 35.3516 31.4973 35.3516 30.957V21.1934C37.1485 19.5829 38.2812 17.2456 38.2812 14.6484C38.2812 9.80215 34.3385 5.85938 29.4922 5.85938ZM32.4219 28.2199L30.3047 26.8085C29.8126 26.4806 29.1717 26.4806 28.6796 26.8085L26.5625 28.2199V22.9348C27.4793 23.2599 28.4653 23.4375 29.4922 23.4375C30.519 23.4375 31.5051 23.2599 32.4219 22.9348V28.2199ZM29.4922 20.5078C26.2613 20.5078 23.6328 17.8793 23.6328 14.6484C23.6328 11.4176 26.2613 8.78906 29.4922 8.78906C32.723 8.78906 35.3516 11.4176 35.3516 14.6484C35.3516 17.8793 32.723 20.5078 29.4922 20.5078Z" fill="#1CB4DB"/>
</svg>
