<svg width="50" height="50" viewBox="0 0 50 50" fill="none" xmlns="http://www.w3.org/2000/svg">
<path d="M47.8556 37.5386C43.3806 33.0628 43.6741 33.3463 43.5481 33.2533L31.7027 24.506L36.2979 19.9103C39.9925 21.227 44.1754 20.3167 46.9905 17.501C50.0575 14.4335 50.8626 9.7436 48.9938 5.83103C48.5583 4.91943 47.3504 4.71295 46.637 5.42666L42.8488 9.21557C42.2779 9.78657 41.3491 9.78667 40.7778 9.21557C40.2054 8.64309 40.2054 7.71675 40.7778 7.14427L44.5661 3.35527C45.2803 2.64097 45.0726 1.43313 44.1618 0.998081C40.25 -0.871025 35.5611 -0.0657933 32.494 3.00169C29.6782 5.81804 28.7691 10.0019 30.0852 13.6962L24.7856 18.9963C23.7066 18.1569 25.1304 19.5907 14.9678 8.81266L16.0331 7.74712C16.707 7.07326 16.5665 5.94492 15.7511 5.45557L7.90793 0.748717C5.85197 -0.485111 3.23214 -0.162589 1.53673 1.53314C-0.158585 3.22878 -0.481144 5.8493 0.752452 7.90555L5.45842 15.7503C5.94846 16.5675 7.07707 16.705 7.74953 16.0324L8.75422 15.0275C18.8642 25.7498 17.5335 24.2933 18.3328 25.3212C18.3517 25.3455 18.3728 25.367 18.3929 25.3898L13.6936 30.0897C10.0002 28.7733 5.81682 29.6826 3.00119 32.4989C-0.0658111 35.5665 -0.87089 40.2563 0.99796 44.1689C1.43361 45.0806 2.64122 45.2869 3.3548 44.5733L7.14299 40.7843C7.71418 40.2132 8.64299 40.2134 9.21399 40.7843C9.78635 41.3568 9.78635 42.2831 9.21399 42.8556L5.4256 46.6446C4.71134 47.3589 4.91916 48.5667 5.8299 49.0019C7.23596 49.6737 8.74201 50 10.2375 50C12.9026 49.9999 15.533 48.9632 17.4977 46.9983C20.3135 44.1819 21.2226 39.998 19.9065 36.3036L23.9198 32.2899L33.2639 43.6475C33.335 43.7337 33.1004 43.4936 37.2797 47.6736C38.801 49.1953 40.8237 49.9841 42.8127 49.9841C44.272 49.9841 45.7134 49.559 46.924 48.6871C50.6184 46.0257 51.054 40.7373 47.8556 37.5386ZM9.85042 11.9206C9.28274 11.3186 8.33108 11.3081 7.74953 11.8898L7.00471 12.6347L3.26378 6.39843C2.72296 5.49689 2.86427 4.34794 3.60763 3.60444C4.35099 2.86084 5.49972 2.7196 6.401 3.26052L12.6361 7.00225L11.8912 7.74702C11.3312 8.30719 11.3179 9.21127 11.8614 9.78755C23.5383 22.1716 21.7015 20.3081 22.6984 21.0836L20.476 23.3062C19.708 22.3184 21.4914 24.2665 9.85042 11.9206ZM17.1441 34.9238C16.7052 35.3627 16.5907 36.0306 16.8582 36.5908C18.1931 39.3855 17.6177 42.7354 15.4268 44.9268C14.0231 46.3307 12.1442 47.0715 10.2401 47.0713C9.89758 47.0713 9.55442 47.0474 9.21291 46.9989L11.2848 44.9267C13.0017 43.2095 13.002 40.43 11.2848 38.7127C9.572 36.9995 6.78479 36.9996 5.07199 38.7127L3.00011 40.785C2.68292 38.5448 3.41593 36.2265 5.07199 34.5701C7.26301 32.3786 10.6122 31.8034 13.4064 33.1383C13.9663 33.4058 14.634 33.2914 15.0731 32.8524L32.8475 15.0759C33.2864 14.6369 33.4009 13.969 33.1335 13.4088C31.7986 10.6143 32.374 7.26422 34.5649 5.07288C36.2213 3.41632 38.5389 2.68327 40.7786 3.00061L38.7067 5.07288C37.8769 5.90273 37.4199 7.00626 37.4199 8.17992C37.4199 9.35358 37.8769 10.4569 38.7067 11.287C40.4195 13.0002 43.2067 13.0001 44.9195 11.287L46.9914 9.21469C47.3086 11.4549 46.5756 13.7732 44.9195 15.4295C42.7285 17.621 39.3792 18.1964 36.585 16.8614C36.0253 16.5938 35.3574 16.7083 34.9184 17.1473L17.1441 34.9238ZM25.9943 30.2151L29.6085 26.6005L33.292 29.3206L28.8911 33.7223C25.8989 30.0855 26.0856 30.3046 25.9943 30.2151ZM45.2123 46.3101C43.5043 47.5405 40.9842 47.2364 39.3504 45.6023L35.4801 41.7314L30.7606 35.9949L35.6745 31.0801L41.7204 35.5447L45.7846 39.6098C47.6424 41.4679 47.523 44.6456 45.2123 46.3101Z" fill="#1CB4DB"/>
</svg>
