<svg width="50" height="50" viewBox="0 0 50 50" fill="none" xmlns="http://www.w3.org/2000/svg">
<g clip-path="url(#clip0)">
<path d="M15.4283 11.9692L16.1912 11.5055L27.8239 4.43591L28.0402 4.30446L28.169 4.52237L30.2488 8.042L30.2577 8.0571L30.2644 8.07331C30.3007 8.16068 30.3407 8.24276 30.3884 8.31978L15.4283 11.9692ZM15.4283 11.9692H16.3211M15.4283 11.9692H16.3211M16.3211 11.9692H32.1311H32.5692L32.3463 11.592L30.5299 8.51797L30.5209 8.50271M16.3211 11.9692L30.5209 8.50271M30.5209 8.50271L30.5098 8.48887M30.5209 8.50271L30.5098 8.48887M30.5098 8.48887C30.4648 8.4326 30.4241 8.37726 30.3885 8.31992L30.5098 8.48887ZM47.9616 36.5621L47.9493 36.5615L47.937 36.5621C47.9055 36.5637 47.8901 36.5651 47.8768 36.566C47.8686 36.5665 47.8613 36.5668 47.8515 36.5668H39.5507C36.4579 36.5668 33.9413 34.0502 33.9413 30.9574C33.9413 27.8646 36.4579 25.3481 39.5507 25.3481H46.0937H46.3437V25.0981V19.5316C46.3437 17.2396 44.4794 15.3753 42.1874 15.3753H5.85936C5.20378 15.3753 4.57469 15.2621 3.98981 15.0546L3.65624 14.9363V15.2903V42.1878C3.65624 44.4797 5.52051 46.344 7.81249 46.344H42.1874C43.9795 46.344 45.5647 45.2028 46.1313 43.5043L45.8941 43.4252L46.1313 43.5043C46.4289 42.612 47.3937 42.13 48.2858 42.4277L48.3649 42.1905L48.2858 42.4277C49.1781 42.7253 49.6602 43.6899 49.3625 44.5822C48.3313 47.6734 45.4481 49.7502 42.1874 49.7502H7.81249C3.64275 49.7502 0.25 46.3575 0.25 42.1878V9.86361V9.76595V9.27767C0.25 9.03836 0.299694 8.81123 0.38875 8.60468L0.397344 8.58475L0.402375 8.56363C0.990379 6.09521 3.21451 4.25424 5.85936 4.25424H9.47264C10.4133 4.25424 11.1758 5.01673 11.1758 5.95737C11.1758 6.898 10.4133 7.66049 9.47264 7.66049H5.85936C4.66269 7.66049 3.68621 8.61886 3.6569 9.80862L3.6566 9.80862L3.6569 9.82094C3.68621 11.0107 4.66269 11.9691 5.85936 11.9691H8.79969H8.8697L8.92953 11.9327L27.7446 0.497985C27.7446 0.49798 27.7446 0.497974 27.7446 0.497969C28.1337 0.261564 28.6015 0.190655 29.0431 0.301338L29.1038 0.0588855L29.0431 0.301341C29.4848 0.412046 29.8637 0.694931 30.0955 1.087C30.0955 1.087 30.0955 1.08701 30.0955 1.08701L32.3052 4.82664L32.4351 5.04652L32.6522 4.91192L37.5523 1.87326L37.4205 1.66079L37.5523 1.87325C37.9382 1.63395 38.4034 1.5586 38.845 1.66402L38.8451 1.66404C39.2867 1.76928 39.6679 2.04653 39.9041 2.43415L39.9041 2.43417L46.5487 13.3345L46.5748 13.3774L46.6154 13.4068C48.5134 14.7829 49.7499 17.0153 49.7499 19.5316V34.8636C49.7499 35.8042 48.9874 36.5667 48.0468 36.5667C48.0323 36.5667 48.0238 36.5661 48.0105 36.5651C47.9996 36.5643 47.9853 36.5632 47.9616 36.5621ZM46.0937 33.1604H46.3437V32.9104V29.0042V28.7542H46.0937H39.5507C38.3357 28.7542 37.3476 29.7423 37.3476 30.9573C37.3476 32.1724 38.3357 33.1605 39.5507 33.1604H46.0937ZM36.4532 11.8463L36.5257 11.9691H36.6684H41.282H41.7271L41.4954 11.5889L38.02 5.88769L37.8889 5.67259L37.6748 5.80535L34.3764 7.85076L34.1684 7.97972L34.2929 8.1904L36.4532 11.8463Z" fill="#1CB4DB" stroke="white" stroke-width="0.5"/>
</g>
<defs>
<clipPath id="clip0">
<rect width="50" height="50" fill="white"/>
</clipPath>
</defs>
</svg>
