<svg width="49" height="35" viewBox="0 0 49 35" fill="none" xmlns="http://www.w3.org/2000/svg">
<path d="M40.8344 1.11157C41.6517 0.390719 42.7394 -0.00779442 43.8679 0.000115538C44.9964 0.0080255 46.0775 0.421741 46.883 1.15396C47.6885 1.88618 48.1554 2.87964 48.1853 3.9247C48.2151 4.96976 47.8055 5.98469 47.0429 6.75532L23.8914 33.5766C23.4933 33.9738 23.0129 34.2925 22.4787 34.5138C21.9446 34.735 21.3678 34.8543 20.7828 34.8643C20.1978 34.8743 19.6166 34.775 19.074 34.5722C18.5314 34.3694 18.0386 34.0673 17.6249 33.6841L2.27179 19.4618C1.84424 19.0928 1.5013 18.6477 1.26345 18.1532C1.0256 17.6587 0.897706 17.1249 0.887396 16.5836C0.877086 16.0423 0.984575 15.5047 1.20345 15.0027C1.42232 14.5008 1.74809 14.0448 2.16133 13.662C2.57456 13.2792 3.0668 12.9774 3.60867 12.7747C4.15055 12.5719 4.73095 12.4723 5.31527 12.4819C5.89958 12.4914 6.47584 12.6099 7.00965 12.8302C7.54347 13.0506 8.0239 13.3682 8.42231 13.7643L20.5725 25.0142L40.7241 1.22982C40.7604 1.18843 40.7991 1.14895 40.8401 1.11157H40.8344Z" fill="white"/>
</svg>
