<svg width="5" height="9" viewBox="0 0 5 9" fill="none" xmlns="http://www.w3.org/2000/svg">
<path d="M4.08406 4.41594C4.08433 4.55223 4.03686 4.68432 3.9499 4.78927L1.03323 8.28927C0.934217 8.4084 0.791935 8.48331 0.637686 8.49753C0.483437 8.51175 0.329857 8.46412 0.21073 8.3651C0.0916039 8.26609 0.0166899 8.12381 0.00246839 7.96956C-0.0117531 7.81531 0.0358827 7.66173 0.134897 7.5426L2.74823 4.41594L0.228231 1.28927C0.179776 1.2296 0.14359 1.16095 0.121755 1.08725C0.09992 1.01355 0.0928652 0.936264 0.100996 0.85983C0.109128 0.783397 0.132284 0.709324 0.169136 0.641869C0.205987 0.574415 0.255807 0.514908 0.31573 0.466769C0.37571 0.413348 0.446075 0.372889 0.522418 0.347926C0.598761 0.322964 0.679436 0.314037 0.75939 0.321704C0.839344 0.32937 0.916852 0.353466 0.98706 0.392481C1.05727 0.431497 1.11866 0.484591 1.1674 0.548437L3.9849 4.04844C4.05811 4.1564 4.09303 4.28579 4.08406 4.41594Z" fill="#C6CAD6"/>
</svg>
