<svg width="304" height="250" viewBox="0 0 304 250" fill="none" xmlns="http://www.w3.org/2000/svg">
<circle cx="300.5" cy="3.5" r="3.5" fill="#D8D8D8"/>
<circle cx="300.5" cy="111.5" r="3.5" fill="#D8D8D8"/>
<circle cx="300.5" cy="57.5" r="3.5" fill="#D8D8D8"/>
<circle cx="300.5" cy="165.5" r="3.5" fill="#D8D8D8"/>
<circle cx="300.5" cy="219.5" r="3.5" fill="#D8D8D8"/>
<circle cx="300.5" cy="30.5" r="3.5" fill="#D8D8D8"/>
<circle cx="300.5" cy="138.5" r="3.5" fill="#D8D8D8"/>
<circle cx="300.5" cy="84.5" r="3.5" fill="#D8D8D8"/>
<circle cx="300.5" cy="192.5" r="3.5" fill="#D8D8D8"/>
<circle cx="300.5" cy="246.5" r="3.5" fill="#D8D8D8"/>
<circle cx="246.5" cy="3.5" r="3.5" fill="#D8D8D8"/>
<circle cx="246.5" cy="111.5" r="3.5" fill="#D8D8D8"/>
<circle cx="246.5" cy="57.5" r="3.5" fill="#D8D8D8"/>
<circle cx="246.5" cy="165.5" r="3.5" fill="#D8D8D8"/>
<circle cx="246.5" cy="219.5" r="3.5" fill="#D8D8D8"/>
<circle cx="246.5" cy="30.5" r="3.5" fill="#D8D8D8"/>
<circle cx="246.5" cy="138.5" r="3.5" fill="#D8D8D8"/>
<circle cx="246.5" cy="84.5" r="3.5" fill="#D8D8D8"/>
<circle cx="246.5" cy="192.5" r="3.5" fill="#D8D8D8"/>
<circle cx="246.5" cy="246.5" r="3.5" fill="#D8D8D8"/>
<circle cx="273.5" cy="3.5" r="3.5" fill="#D8D8D8"/>
<circle cx="273.5" cy="111.5" r="3.5" fill="#D8D8D8"/>
<circle cx="273.5" cy="57.5" r="3.5" fill="#D8D8D8"/>
<circle cx="273.5" cy="165.5" r="3.5" fill="#D8D8D8"/>
<circle cx="273.5" cy="219.5" r="3.5" fill="#D8D8D8"/>
<circle cx="273.5" cy="30.5" r="3.5" fill="#D8D8D8"/>
<circle cx="273.5" cy="138.5" r="3.5" fill="#D8D8D8"/>
<circle cx="273.5" cy="84.5" r="3.5" fill="#D8D8D8"/>
<circle cx="273.5" cy="192.5" r="3.5" fill="#D8D8D8"/>
<circle cx="273.5" cy="246.5" r="3.5" fill="#D8D8D8"/>
<circle cx="219.5" cy="3.5" r="3.5" fill="#D8D8D8"/>
<circle cx="219.5" cy="111.5" r="3.5" fill="#D8D8D8"/>
<circle cx="219.5" cy="57.5" r="3.5" fill="#D8D8D8"/>
<circle cx="219.5" cy="165.5" r="3.5" fill="#D8D8D8"/>
<circle cx="219.5" cy="219.5" r="3.5" fill="#D8D8D8"/>
<circle cx="219.5" cy="30.5" r="3.5" fill="#D8D8D8"/>
<circle cx="219.5" cy="138.5" r="3.5" fill="#D8D8D8"/>
<circle cx="219.5" cy="84.5" r="3.5" fill="#D8D8D8"/>
<circle cx="219.5" cy="192.5" r="3.5" fill="#D8D8D8"/>
<circle cx="219.5" cy="246.5" r="3.5" fill="#D8D8D8"/>
<circle cx="193.5" cy="3.5" r="3.5" fill="#D8D8D8"/>
<circle cx="193.5" cy="111.5" r="3.5" fill="#D8D8D8"/>
<circle cx="193.5" cy="57.5" r="3.5" fill="#D8D8D8"/>
<circle cx="193.5" cy="165.5" r="3.5" fill="#D8D8D8"/>
<circle cx="193.5" cy="219.5" r="3.5" fill="#D8D8D8"/>
<circle cx="193.5" cy="30.5" r="3.5" fill="#D8D8D8"/>
<circle cx="193.5" cy="138.5" r="3.5" fill="#D8D8D8"/>
<circle cx="193.5" cy="84.5" r="3.5" fill="#D8D8D8"/>
<circle cx="193.5" cy="192.5" r="3.5" fill="#D8D8D8"/>
<circle cx="193.5" cy="246.5" r="3.5" fill="#D8D8D8"/>
<circle cx="139.5" cy="3.5" r="3.5" fill="#D8D8D8"/>
<circle cx="139.5" cy="111.5" r="3.5" fill="#D8D8D8"/>
<circle cx="139.5" cy="57.5" r="3.5" fill="#D8D8D8"/>
<circle cx="139.5" cy="165.5" r="3.5" fill="#D8D8D8"/>
<circle cx="139.5" cy="219.5" r="3.5" fill="#D8D8D8"/>
<circle cx="139.5" cy="30.5" r="3.5" fill="#D8D8D8"/>
<circle cx="139.5" cy="138.5" r="3.5" fill="#D8D8D8"/>
<circle cx="139.5" cy="84.5" r="3.5" fill="#D8D8D8"/>
<circle cx="139.5" cy="192.5" r="3.5" fill="#D8D8D8"/>
<circle cx="139.5" cy="246.5" r="3.5" fill="#D8D8D8"/>
<circle cx="166.5" cy="3.5" r="3.5" fill="#D8D8D8"/>
<circle cx="166.5" cy="111.5" r="3.5" fill="#D8D8D8"/>
<circle cx="166.5" cy="57.5" r="3.5" fill="#D8D8D8"/>
<circle cx="166.5" cy="165.5" r="3.5" fill="#D8D8D8"/>
<circle cx="166.5" cy="219.5" r="3.5" fill="#D8D8D8"/>
<circle cx="166.5" cy="30.5" r="3.5" fill="#D8D8D8"/>
<circle cx="166.5" cy="138.5" r="3.5" fill="#D8D8D8"/>
<circle cx="166.5" cy="84.5" r="3.5" fill="#D8D8D8"/>
<circle cx="166.5" cy="192.5" r="3.5" fill="#D8D8D8"/>
<circle cx="166.5" cy="246.5" r="3.5" fill="#D8D8D8"/>
<circle cx="112.5" cy="3.5" r="3.5" fill="#D8D8D8"/>
<circle cx="112.5" cy="111.5" r="3.5" fill="#D8D8D8"/>
<circle cx="112.5" cy="57.5" r="3.5" fill="#D8D8D8"/>
<circle cx="112.5" cy="165.5" r="3.5" fill="#D8D8D8"/>
<circle cx="112.5" cy="219.5" r="3.5" fill="#D8D8D8"/>
<circle cx="112.5" cy="30.5" r="3.5" fill="#D8D8D8"/>
<circle cx="112.5" cy="138.5" r="3.5" fill="#D8D8D8"/>
<circle cx="112.5" cy="84.5" r="3.5" fill="#D8D8D8"/>
<circle cx="112.5" cy="192.5" r="3.5" fill="#D8D8D8"/>
<circle cx="112.5" cy="246.5" r="3.5" fill="#D8D8D8"/>
<circle cx="84.5" cy="3.5" r="3.5" fill="#D8D8D8"/>
<circle cx="84.5" cy="111.5" r="3.5" fill="#D8D8D8"/>
<circle cx="84.5" cy="57.5" r="3.5" fill="#D8D8D8"/>
<circle cx="84.5" cy="165.5" r="3.5" fill="#D8D8D8"/>
<circle cx="84.5" cy="219.5" r="3.5" fill="#D8D8D8"/>
<circle cx="84.5" cy="30.5" r="3.5" fill="#D8D8D8"/>
<circle cx="84.5" cy="138.5" r="3.5" fill="#D8D8D8"/>
<circle cx="84.5" cy="84.5" r="3.5" fill="#D8D8D8"/>
<circle cx="84.5" cy="192.5" r="3.5" fill="#D8D8D8"/>
<circle cx="84.5" cy="246.5" r="3.5" fill="#D8D8D8"/>
<circle cx="30.5" cy="3.5" r="3.5" fill="#D8D8D8"/>
<circle cx="30.5" cy="111.5" r="3.5" fill="#D8D8D8"/>
<circle cx="30.5" cy="57.5" r="3.5" fill="#D8D8D8"/>
<circle cx="30.5" cy="165.5" r="3.5" fill="#D8D8D8"/>
<circle cx="30.5" cy="219.5" r="3.5" fill="#D8D8D8"/>
<circle cx="30.5" cy="30.5" r="3.5" fill="#D8D8D8"/>
<circle cx="30.5" cy="138.5" r="3.5" fill="#D8D8D8"/>
<circle cx="30.5" cy="84.5" r="3.5" fill="#D8D8D8"/>
<circle cx="30.5" cy="192.5" r="3.5" fill="#D8D8D8"/>
<circle cx="30.5" cy="246.5" r="3.5" fill="#D8D8D8"/>
<circle cx="57.5" cy="3.5" r="3.5" fill="#D8D8D8"/>
<circle cx="57.5" cy="111.5" r="3.5" fill="#D8D8D8"/>
<circle cx="57.5" cy="57.5" r="3.5" fill="#D8D8D8"/>
<circle cx="57.5" cy="165.5" r="3.5" fill="#D8D8D8"/>
<circle cx="57.5" cy="219.5" r="3.5" fill="#D8D8D8"/>
<circle cx="57.5" cy="30.5" r="3.5" fill="#D8D8D8"/>
<circle cx="57.5" cy="138.5" r="3.5" fill="#D8D8D8"/>
<circle cx="57.5" cy="84.5" r="3.5" fill="#D8D8D8"/>
<circle cx="57.5" cy="192.5" r="3.5" fill="#D8D8D8"/>
<circle cx="57.5" cy="246.5" r="3.5" fill="#D8D8D8"/>
<circle cx="3.5" cy="3.5" r="3.5" fill="#D8D8D8"/>
<circle cx="3.5" cy="111.5" r="3.5" fill="#D8D8D8"/>
<circle cx="3.5" cy="57.5" r="3.5" fill="#D8D8D8"/>
<circle cx="3.5" cy="165.5" r="3.5" fill="#D8D8D8"/>
<circle cx="3.5" cy="219.5" r="3.5" fill="#D8D8D8"/>
<circle cx="3.5" cy="30.5" r="3.5" fill="#D8D8D8"/>
<circle cx="3.5" cy="138.5" r="3.5" fill="#D8D8D8"/>
<circle cx="3.5" cy="84.5" r="3.5" fill="#D8D8D8"/>
<circle cx="3.5" cy="192.5" r="3.5" fill="#D8D8D8"/>
<circle cx="3.5" cy="246.5" r="3.5" fill="#D8D8D8"/>
</svg>
