<svg width="20" height="20" viewBox="0 0 20 20" fill="none" xmlns="http://www.w3.org/2000/svg">
<path d="M7.5 9.16667C8.15928 9.16667 8.80374 8.97117 9.35191 8.6049C9.90007 8.23863 10.3273 7.71803 10.5796 7.10895C10.8319 6.49986 10.8979 5.82964 10.7693 5.18303C10.6407 4.53643 10.3232 3.94249 9.85703 3.47631C9.39085 3.01014 8.79691 2.69267 8.15031 2.56405C7.5037 2.43543 6.83348 2.50144 6.22439 2.75374C5.61531 3.00603 5.09471 3.43327 4.72844 3.98143C4.36217 4.5296 4.16667 5.17406 4.16667 5.83334C4.16667 6.71739 4.51786 7.56524 5.14298 8.19036C5.7681 8.81548 6.61595 9.16667 7.5 9.16667ZM7.5 4.16667C7.82964 4.16667 8.15187 4.26442 8.42596 4.44755C8.70004 4.63069 8.91366 4.89099 9.0398 5.19553C9.16595 5.50007 9.19896 5.83518 9.13465 6.15849C9.07034 6.48179 8.9116 6.77876 8.67852 7.01185C8.44543 7.24493 8.14846 7.40367 7.82516 7.46798C7.50185 7.53229 7.16674 7.49928 6.8622 7.37313C6.55766 7.24699 6.29736 7.03337 6.11422 6.75929C5.93109 6.4852 5.83334 6.16297 5.83334 5.83334C5.83334 5.39131 6.00893 4.96738 6.32149 4.65482C6.63405 4.34226 7.05798 4.16667 7.5 4.16667ZM14.1667 10.8333C14.6611 10.8333 15.1445 10.6867 15.5556 10.412C15.9667 10.1373 16.2872 9.74686 16.4764 9.29004C16.6656 8.83323 16.7151 8.33056 16.6186 7.84561C16.5222 7.36066 16.2841 6.9152 15.9344 6.56557C15.5848 6.21594 15.1394 5.97784 14.6544 5.88137C14.1694 5.78491 13.6668 5.83442 13.21 6.02364C12.7531 6.21286 12.3627 6.53329 12.088 6.94441C11.8133 7.35553 11.6667 7.83888 11.6667 8.33334C11.6667 8.99638 11.9301 9.63226 12.3989 10.1011C12.8677 10.5699 13.5036 10.8333 14.1667 10.8333ZM14.1667 7.5C14.3315 7.5 14.4926 7.54888 14.6296 7.64044C14.7667 7.73201 14.8735 7.86216 14.9366 8.01443C14.9996 8.1667 15.0161 8.33426 14.984 8.49591C14.9518 8.65756 14.8725 8.80605 14.7559 8.92259C14.6394 9.03913 14.4909 9.1185 14.3292 9.15066C14.1676 9.18281 14 9.16631 13.8478 9.10323C13.6955 9.04016 13.5653 8.93335 13.4738 8.79631C13.3822 8.65927 13.3333 8.49815 13.3333 8.33334C13.3333 8.11232 13.4211 7.90036 13.5774 7.74408C13.7337 7.5878 13.9457 7.5 14.1667 7.5ZM14.1667 11.6667C13.2432 11.6677 12.3462 11.9755 11.6167 12.5417C10.8004 11.7286 9.76172 11.1755 8.63152 10.952C7.50133 10.7285 6.33027 10.8447 5.26603 11.2859C4.20178 11.7272 3.29202 12.4736 2.65146 13.4312C2.0109 14.3888 1.66823 15.5146 1.66667 16.6667C1.66667 16.8877 1.75447 17.0996 1.91075 17.2559C2.06703 17.4122 2.27899 17.5 2.50001 17.5C2.72102 17.5 2.93298 17.4122 3.08926 17.2559C3.24554 17.0996 3.33334 16.8877 3.33334 16.6667C3.33334 15.5616 3.77233 14.5018 4.55373 13.7204C5.33513 12.939 6.39494 12.5 7.5 12.5C8.60507 12.5 9.66488 12.939 10.4463 13.7204C11.2277 14.5018 11.6667 15.5616 11.6667 16.6667C11.6667 16.8877 11.7545 17.0996 11.9107 17.2559C12.067 17.4122 12.279 17.5 12.5 17.5C12.721 17.5 12.933 17.4122 13.0893 17.2559C13.2455 17.0996 13.3333 16.8877 13.3333 16.6667C13.3353 15.6904 13.0887 14.7296 12.6167 13.875C12.9849 13.584 13.4277 13.4025 13.8943 13.3514C14.3609 13.3002 14.8324 13.3815 15.255 13.5858C15.6775 13.7901 16.034 14.1093 16.2837 14.5068C16.5334 14.9042 16.6661 15.364 16.6667 15.8333C16.6667 16.0543 16.7545 16.2663 16.9107 16.4226C17.067 16.5789 17.279 16.6667 17.5 16.6667C17.721 16.6667 17.933 16.5789 18.0893 16.4226C18.2455 16.2663 18.3333 16.0543 18.3333 15.8333C18.3333 14.7283 17.8944 13.6685 17.1129 12.8871C16.3315 12.1057 15.2717 11.6667 14.1667 11.6667Z" fill="#1CB4DB"/>
</svg>
