<svg width="34" height="35" viewBox="0 0 34 35" fill="none" xmlns="http://www.w3.org/2000/svg">
<g clip-path="url(#clip0)">
<path d="M26.3228 3.53166L17.4473 0.572248C17.1567 0.47546 16.8426 0.47546 16.552 0.572248L7.67659 3.53166C6.26546 4.00041 5.03793 4.90195 4.16842 6.10817C3.29891 7.3144 2.83165 8.76396 2.83301 10.2509V17.5C2.83301 28.2143 15.8663 34.1317 16.4245 34.3782C16.6056 34.4586 16.8015 34.5002 16.9997 34.5002C17.1978 34.5002 17.3938 34.4586 17.5748 34.3782C18.133 34.1317 31.1663 28.2143 31.1663 17.5V10.2509C31.1677 8.76396 30.7004 7.3144 29.8309 6.10817C28.9614 4.90195 27.7339 4.00041 26.3228 3.53166ZM28.333 17.5C28.333 25.2279 19.3811 30.2967 16.9997 31.5094C14.6154 30.301 5.66634 25.2477 5.66634 17.5V10.2509C5.66643 9.35881 5.94723 8.48935 6.46898 7.76572C6.99072 7.04209 7.72695 6.50099 8.57334 6.21908L16.9997 3.40983L25.426 6.21908C26.2724 6.50099 27.0086 7.04209 27.5304 7.76572C28.0521 8.48935 28.3329 9.35881 28.333 10.2509V17.5Z" fill="#73C04E"/>
<path d="M21.6746 12.2583L15.7416 18.2083L12.5626 14.8933C12.435 14.7539 12.2808 14.6413 12.1091 14.5623C11.9373 14.4834 11.7515 14.4396 11.5626 14.4335C11.3737 14.4275 11.1854 14.4593 11.009 14.5271C10.8325 14.5949 10.6714 14.6974 10.5352 14.8284C10.399 14.9595 10.2903 15.1164 10.2157 15.2901C10.141 15.4638 10.1019 15.6507 10.1006 15.8397C10.0993 16.0287 10.1359 16.2161 10.2081 16.3908C10.2803 16.5655 10.3868 16.7239 10.5212 16.8568L13.788 20.2568C14.0317 20.52 14.3261 20.731 14.6536 20.8771C14.9812 21.0232 15.3349 21.1014 15.6935 21.1068H15.7402C16.0916 21.108 16.4398 21.0394 16.7644 20.9049C17.0891 20.7704 17.3838 20.5727 17.6315 20.3234L23.6835 14.2714C23.8156 14.1395 23.9205 13.9829 23.9922 13.8104C24.0638 13.638 24.1008 13.4531 24.101 13.2664C24.1012 13.0797 24.0646 12.8947 23.9933 12.7221C23.9221 12.5495 23.8175 12.3927 23.6856 12.2605C23.5537 12.1283 23.397 12.0234 23.2246 11.9517C23.0521 11.8801 22.8673 11.8431 22.6805 11.8429C22.4938 11.8427 22.3089 11.8793 22.1363 11.9506C21.9637 12.0219 21.8068 12.1264 21.6746 12.2583Z" fill="#73C04E"/>
</g>
<defs>
<clipPath id="clip0">
<rect width="34" height="34" fill="white" transform="translate(0 0.5)"/>
</clipPath>
</defs>
</svg>
