<svg width="20" height="20" viewBox="0 0 20 20" fill="none" xmlns="http://www.w3.org/2000/svg">
<path fill-rule="evenodd" clip-rule="evenodd" d="M6.83583 1.67004C7.88666 1.67004 8.75583 2.58921 8.89916 3.78504L15.9683 10.855L9.48666 17.3367C9.25451 17.5689 8.97889 17.7531 8.67555 17.8787C8.37221 18.0044 8.04709 18.0691 7.71875 18.0691C7.39041 18.0691 7.06528 18.0044 6.76194 17.8787C6.4586 17.7531 6.18298 17.5689 5.95083 17.3367L2.41666 13.8017C2.18447 13.5696 2.00029 13.2939 1.87462 12.9906C1.74896 12.6873 1.68428 12.3621 1.68428 12.0338C1.68428 11.7055 1.74896 11.3803 1.87462 11.077C2.00029 10.7736 2.18447 10.498 2.41666 10.2659L4.75333 7.92838V4.13421C4.75333 2.77338 5.68666 1.67004 6.83666 1.67004H6.83583ZM7.2525 4.13421V5.42838L6.41916 6.26171V4.13421C6.41916 3.86171 6.60583 3.64171 6.83583 3.64171C7.06666 3.64171 7.2525 3.86171 7.2525 4.13421ZM7.2525 9.06254V7.78504L3.59416 11.4442C3.43794 11.6005 3.35017 11.8124 3.35017 12.0334C3.35017 12.2543 3.43794 12.4663 3.59416 12.6225L7.13 16.1584C7.28627 16.3146 7.49819 16.4024 7.71916 16.4024C7.94013 16.4024 8.15206 16.3146 8.30833 16.1584L13.6117 10.855L8.92 6.16338V9.06338L8.9175 9.17004H7.2425C7.24916 9.1346 7.2525 9.09861 7.2525 9.06254Z" fill="#1CB4DB"/>
<path d="M14.0492 14.0625C13.6995 14.4121 13.4613 14.8576 13.3648 15.3426C13.2682 15.8275 13.3177 16.3303 13.5069 16.7871C13.6961 17.244 14.0165 17.6345 14.4277 17.9092C14.8388 18.1839 15.3222 18.3306 15.8167 18.3306C16.3112 18.3306 16.7945 18.1839 17.2057 17.9092C17.6168 17.6345 17.9372 17.244 18.1264 16.7871C18.3156 16.3303 18.3651 15.8275 18.2686 15.3426C18.172 14.8576 17.9339 14.4121 17.5842 14.0625L15.8167 12.295L14.0492 14.0617V14.0625Z" fill="#1CB4DB"/>
</svg>
