<svg width="165" height="165" viewBox="0 0 165 165" fill="none" xmlns="http://www.w3.org/2000/svg">
<path d="M165 82.5C165 128.063 128.064 165 82.5001 165C36.9366 165 6.10352e-05 128.063 6.10352e-05 82.5C6.10352e-05 36.9365 36.9366 0 82.5001 0C128.064 0 165 36.9365 165 82.5Z" fill="white"/>
<path d="M48.0161 65.144C47.1601 65.144 46.3841 64.96 45.6881 64.592C45.0001 64.216 44.4561 63.7 44.0561 63.044C43.6641 62.38 43.4681 61.632 43.4681 60.8C43.4681 59.968 43.6641 59.224 44.0561 58.568C44.4561 57.904 45.0001 57.388 45.6881 57.02C46.3841 56.644 47.1641 56.456 48.0281 56.456C48.7561 56.456 49.4121 56.584 49.9961 56.84C50.5881 57.096 51.0841 57.464 51.4841 57.944L50.2361 59.096C49.6681 58.44 48.9641 58.112 48.1241 58.112C47.6041 58.112 47.1401 58.228 46.7321 58.46C46.3241 58.684 46.0041 59 45.7721 59.408C45.5481 59.816 45.4361 60.28 45.4361 60.8C45.4361 61.32 45.5481 61.784 45.7721 62.192C46.0041 62.6 46.3241 62.92 46.7321 63.152C47.1401 63.376 47.6041 63.488 48.1241 63.488C48.9641 63.488 49.6681 63.156 50.2361 62.492L51.4841 63.644C51.0841 64.132 50.5881 64.504 49.9961 64.76C49.4041 65.016 48.7441 65.144 48.0161 65.144ZM59.2551 63.44V65H52.7511V56.6H59.0991V58.16H54.6831V59.984H58.5831V61.496H54.6831V63.44H59.2551ZM68.4813 56.6V65H66.5493V58.184H62.7573V65H60.8253V56.6H68.4813ZM76.9836 58.184H74.2956V65H72.3756V58.184H69.6996V56.6H76.9836V58.184ZM78.2042 56.6H80.1362V62.072L84.1442 56.6H85.9682V65H84.0482V59.54L80.0402 65H78.2042V56.6ZM91.3117 61.616H89.9677V65H88.0357V56.6H89.9677V59.996H91.3597L93.5677 56.6H95.6197L92.8717 60.656L95.7037 65H93.4957L91.3117 61.616ZM107.986 56.6V65H106.042V61.556H102.226V65H100.282V56.6H102.226V59.912H106.042V56.6H107.986ZM115.779 63.2H111.879L111.135 65H109.143L112.887 56.6H114.807L118.563 65H116.523L115.779 63.2ZM115.167 61.724L113.835 58.508L112.503 61.724H115.167Z" fill="#C7CBD7"/>
<path d="M45.3921 104.02C46.1281 104.14 46.6921 104.416 47.0841 104.848C47.4761 105.272 47.6721 105.8 47.6721 106.432C47.6721 106.92 47.5441 107.372 47.2881 107.788C47.0321 108.196 46.6401 108.524 46.1121 108.772C45.5921 109.02 44.9521 109.144 44.1921 109.144C43.6001 109.144 43.0161 109.068 42.4401 108.916C41.8721 108.756 41.3881 108.532 40.9881 108.244L41.7441 106.756C42.0641 106.996 42.4321 107.184 42.8481 107.32C43.2721 107.448 43.7041 107.512 44.1441 107.512C44.6321 107.512 45.0161 107.42 45.2961 107.236C45.5761 107.044 45.7161 106.776 45.7161 106.432C45.7161 105.744 45.1921 105.4 44.1441 105.4H43.2561V104.116L44.9841 102.16H41.4081V100.6H47.2881V101.86L45.3921 104.02ZM48.7256 104.872H52.1216V106.372H48.7256V104.872ZM56.0785 103.756C57.2625 103.756 58.1345 103.992 58.6945 104.464C59.2625 104.936 59.5465 105.568 59.5465 106.36C59.5465 106.872 59.4185 107.34 59.1625 107.764C58.9065 108.18 58.5145 108.516 57.9865 108.772C57.4665 109.02 56.8225 109.144 56.0545 109.144C55.4625 109.144 54.8785 109.068 54.3025 108.916C53.7345 108.756 53.2505 108.532 52.8505 108.244L53.6185 106.756C53.9385 106.996 54.3065 107.184 54.7225 107.32C55.1385 107.448 55.5665 107.512 56.0065 107.512C56.4945 107.512 56.8785 107.416 57.1585 107.224C57.4385 107.032 57.5785 106.764 57.5785 106.42C57.5785 106.06 57.4305 105.788 57.1345 105.604C56.8465 105.42 56.3425 105.328 55.6225 105.328H53.4745L53.9065 100.6H59.0305V102.16H55.5265L55.3945 103.756H56.0785ZM71.2097 100.6V109H69.2897V105.976C68.5617 106.24 67.8857 106.372 67.2617 106.372C66.1337 106.372 65.2697 106.104 64.6697 105.568C64.0697 105.024 63.7697 104.244 63.7697 103.228V100.6H65.6897V103.012C65.6897 103.588 65.8417 104.024 66.1457 104.32C66.4577 104.608 66.9057 104.752 67.4897 104.752C68.1297 104.752 68.7297 104.628 69.2897 104.38V100.6H71.2097ZM79.802 107.44V109H73.298V100.6H79.646V102.16H75.23V103.984H79.13V105.496H75.23V107.44H79.802ZM88.8602 100.6V109H86.9402V102.184H84.0602L84.0002 103.936C83.9602 105.128 83.8642 106.096 83.7122 106.84C83.5602 107.576 83.3042 108.144 82.9442 108.544C82.5922 108.936 82.0962 109.132 81.4562 109.132C81.1922 109.132 80.8722 109.088 80.4962 109L80.6162 107.356C80.7202 107.388 80.8362 107.404 80.9642 107.404C81.4282 107.404 81.7522 107.132 81.9362 106.588C82.1202 106.036 82.2362 105.176 82.2842 104.008L82.4042 100.6H88.8602ZM94.9661 109.144C94.0941 109.144 93.3061 108.956 92.6021 108.58C91.9061 108.204 91.3581 107.688 90.9581 107.032C90.5661 106.368 90.3701 105.624 90.3701 104.8C90.3701 103.976 90.5661 103.236 90.9581 102.58C91.3581 101.916 91.9061 101.396 92.6021 101.02C93.3061 100.644 94.0941 100.456 94.9661 100.456C95.8381 100.456 96.6221 100.644 97.3181 101.02C98.0141 101.396 98.5621 101.916 98.9621 102.58C99.3621 103.236 99.5621 103.976 99.5621 104.8C99.5621 105.624 99.3621 106.368 98.9621 107.032C98.5621 107.688 98.0141 108.204 97.3181 108.58C96.6221 108.956 95.8381 109.144 94.9661 109.144ZM94.9661 107.488C95.4621 107.488 95.9101 107.376 96.3101 107.152C96.7101 106.92 97.0221 106.6 97.2461 106.192C97.4781 105.784 97.5941 105.32 97.5941 104.8C97.5941 104.28 97.4781 103.816 97.2461 103.408C97.0221 103 96.7101 102.684 96.3101 102.46C95.9101 102.228 95.4621 102.112 94.9661 102.112C94.4701 102.112 94.0221 102.228 93.6221 102.46C93.2221 102.684 92.9061 103 92.6741 103.408C92.4501 103.816 92.3381 104.28 92.3381 104.8C92.3381 105.32 92.4501 105.784 92.6741 106.192C92.9061 106.6 93.2221 106.92 93.6221 107.152C94.0221 107.376 94.4701 107.488 94.9661 107.488ZM106.88 104.62C107.392 104.772 107.784 105.02 108.056 105.364C108.328 105.708 108.464 106.132 108.464 106.636C108.464 107.38 108.18 107.96 107.612 108.376C107.052 108.792 106.248 109 105.2 109H101.06V100.6H104.972C105.948 100.6 106.708 100.788 107.252 101.164C107.796 101.54 108.068 102.076 108.068 102.772C108.068 103.188 107.964 103.556 107.756 103.876C107.548 104.188 107.256 104.436 106.88 104.62ZM102.992 104.08H104.804C105.228 104.08 105.548 103.996 105.764 103.828C105.98 103.652 106.088 103.396 106.088 103.06C106.088 102.732 105.976 102.48 105.752 102.304C105.536 102.128 105.22 102.04 104.804 102.04H102.992V104.08ZM105.128 107.56C106.04 107.56 106.496 107.2 106.496 106.48C106.496 105.784 106.04 105.436 105.128 105.436H102.992V107.56H105.128ZM116.505 107.44V109H110.001V100.6H116.349V102.16H111.933V103.984H115.833V105.496H111.933V107.44H116.505ZM121.327 105.616H119.983V109H118.051V100.6H119.983V103.996H121.375L123.583 100.6H125.635L122.887 104.656L125.719 109H123.511L121.327 105.616Z" fill="#C7CBD7"/>
<path d="M52.4721 75.2V78.176L46.5441 92H41.3601L47.0241 78.968H42.6081V81.56H38.5521V75.2H52.4721ZM62.1034 81.296C63.1594 81.296 64.1274 81.52 65.0074 81.968C65.8874 82.4 66.5834 83.024 67.0954 83.84C67.6234 84.64 67.8874 85.56 67.8874 86.6C67.8874 87.736 67.5914 88.744 66.9994 89.624C66.4234 90.488 65.6314 91.16 64.6234 91.64C63.6314 92.104 62.5194 92.336 61.2874 92.336C58.8874 92.336 56.9914 91.624 55.5994 90.2C54.2074 88.776 53.5114 86.728 53.5114 84.056C53.5114 82.136 53.8794 80.488 54.6154 79.112C55.3674 77.72 56.4154 76.664 57.7594 75.944C59.1034 75.224 60.6634 74.864 62.4394 74.864C63.3994 74.864 64.3114 74.968 65.1754 75.176C66.0394 75.384 66.7754 75.688 67.3834 76.088L65.6554 79.496C64.8394 78.92 63.8074 78.632 62.5594 78.632C61.3434 78.632 60.3594 78.968 59.6074 79.64C58.8554 80.312 58.4234 81.28 58.3114 82.544C59.2714 81.712 60.5354 81.296 62.1034 81.296ZM60.9994 88.952C61.6714 88.952 62.2154 88.76 62.6314 88.376C63.0634 87.992 63.2794 87.472 63.2794 86.816C63.2794 86.176 63.0634 85.664 62.6314 85.28C62.2154 84.896 61.6634 84.704 60.9754 84.704C60.2874 84.704 59.7274 84.904 59.2954 85.304C58.8634 85.688 58.6474 86.2 58.6474 86.84C58.6474 87.464 58.8554 87.976 59.2714 88.376C59.7034 88.76 60.2794 88.952 60.9994 88.952ZM91.9217 88.784H89.4257V92H84.7937V88.784H75.9137V85.688L83.4497 75.2H88.3697L81.5297 85.016H84.9377V82.16H89.4257V85.016H91.9217V88.784ZM100.302 92.336C98.8624 92.336 97.5824 91.992 96.4624 91.304C95.3424 90.616 94.4624 89.616 93.8224 88.304C93.1984 86.976 92.8864 85.408 92.8864 83.6C92.8864 81.792 93.1984 80.232 93.8224 78.92C94.4624 77.592 95.3424 76.584 96.4624 75.896C97.5824 75.208 98.8624 74.864 100.302 74.864C101.726 74.864 102.998 75.208 104.118 75.896C105.238 76.584 106.11 77.592 106.734 78.92C107.374 80.232 107.694 81.792 107.694 83.6C107.694 85.408 107.374 86.976 106.734 88.304C106.11 89.616 105.238 90.616 104.118 91.304C102.998 91.992 101.726 92.336 100.302 92.336ZM100.302 88.448C101.102 88.448 101.734 88.064 102.198 87.296C102.678 86.512 102.918 85.28 102.918 83.6C102.918 81.92 102.678 80.696 102.198 79.928C101.734 79.144 101.102 78.752 100.302 78.752C99.4864 78.752 98.8384 79.144 98.3584 79.928C97.8944 80.696 97.6624 81.92 97.6624 83.6C97.6624 85.28 97.8944 86.512 98.3584 87.296C98.8384 88.064 99.4864 88.448 100.302 88.448ZM116.732 92.336C115.292 92.336 114.012 91.992 112.892 91.304C111.772 90.616 110.892 89.616 110.252 88.304C109.628 86.976 109.316 85.408 109.316 83.6C109.316 81.792 109.628 80.232 110.252 78.92C110.892 77.592 111.772 76.584 112.892 75.896C114.012 75.208 115.292 74.864 116.732 74.864C118.156 74.864 119.428 75.208 120.548 75.896C121.668 76.584 122.54 77.592 123.164 78.92C123.804 80.232 124.124 81.792 124.124 83.6C124.124 85.408 123.804 86.976 123.164 88.304C122.54 89.616 121.668 90.616 120.548 91.304C119.428 91.992 118.156 92.336 116.732 92.336ZM116.732 88.448C117.532 88.448 118.164 88.064 118.628 87.296C119.108 86.512 119.348 85.28 119.348 83.6C119.348 81.92 119.108 80.696 118.628 79.928C118.164 79.144 117.532 78.752 116.732 78.752C115.916 78.752 115.268 79.144 114.788 79.928C114.324 80.696 114.092 81.92 114.092 83.6C114.092 85.28 114.324 86.512 114.788 87.296C115.268 88.064 115.916 88.448 116.732 88.448Z" fill="#1CB4DB"/>
</svg>
