<svg width="179" height="174" viewBox="0 0 179 174" fill="none" xmlns="http://www.w3.org/2000/svg">
<path d="M137.055 119.494L138.964 116.094L137.759 114.564L138.734 112.827L144.226 120.203L143.286 121.877L134.123 121.041L135.121 119.262L137.055 119.494ZM138.642 119.683L142.098 120.096L139.946 117.36L138.642 119.683Z" fill="#1CB4DB"/>
<path d="M133.059 127.963L133.942 126.95L131.389 124.728L132.658 123.27L138.993 128.786L137.725 130.243L135.163 128.013L134.249 129.063L135.361 132.958L134.013 134.506L132.759 129.77L127.623 129.054L129.073 127.388L133.059 127.963Z" fill="#1CB4DB"/>
<path d="M119.918 137.471L117.873 134.805L119.291 133.717L120.372 135.126L125.942 130.853L131.055 137.517L129.522 138.693L125.373 133.285L122.403 135.564L126.552 140.972L125.019 142.148L120.87 136.74L119.918 137.471Z" fill="#1CB4DB"/>
<path d="M120.637 145.079L118.89 145.904L116.553 140.956L115.265 147.615L113.616 148.394L110.03 140.798L111.766 139.979L114.097 144.916L115.39 138.267L117.05 137.483L120.637 145.079Z" fill="#1CB4DB"/>
<path d="M102.358 151.779L100.408 143.609L102.276 143.163L102.794 145.334L104.521 144.922L105.451 142.406L107.447 141.929L106.33 144.799C106.937 144.893 107.441 145.13 107.845 145.511C108.25 145.899 108.529 146.413 108.681 147.051C108.832 147.681 108.817 148.256 108.636 148.776C108.458 149.304 108.133 149.752 107.661 150.119C107.192 150.494 106.599 150.767 105.883 150.938L102.358 151.779ZM105.469 149.409C106.006 149.281 106.388 149.058 106.617 148.74C106.838 148.424 106.889 148.021 106.772 147.531C106.659 147.056 106.436 146.723 106.102 146.531C105.768 146.339 105.337 146.306 104.808 146.433L103.15 146.828L103.858 149.793L105.469 149.409Z" fill="#1CB4DB"/>
<path d="M42.1898 54.6152L40.2809 58.0161L41.4863 59.5459L40.5113 61.283L35.0189 53.9067L35.9587 52.2324L45.1221 53.0685L44.1236 54.8475L42.1898 54.6152ZM40.6031 54.4265L37.1467 54.0139L39.2992 56.7495L40.6031 54.4265Z" fill="#1CB4DB"/>
<path d="M46.1858 46.1465L45.3033 47.1601L47.8556 49.3822L46.5869 50.8393L40.2516 45.3236L41.5202 43.8665L44.0815 46.0964L44.9955 45.0465L43.884 41.1513L45.2315 39.6037L46.4861 44.3395L51.622 45.056L50.1722 46.7213L46.1858 46.1465Z" fill="#1CB4DB"/>
<path d="M59.3269 36.6388L61.3722 39.3046L59.9536 40.3929L58.8725 38.9839L53.3029 43.257L48.1897 36.5926L49.7225 35.4165L53.8715 40.8243L56.842 38.5453L52.693 33.1375L54.2258 31.9615L58.3748 37.3692L59.3269 36.6388Z" fill="#1CB4DB"/>
<path d="M58.6081 29.0304L60.3551 28.2056L62.6914 33.1537L63.9794 26.4943L65.6288 25.7155L69.2153 33.3114L67.4791 34.1312L65.1479 29.1938L63.8548 35.8424L62.1945 36.6263L58.6081 29.0304Z" fill="#1CB4DB"/>
<path d="M76.8869 22.3303L78.8366 30.5009L76.9691 30.9466L76.451 28.7755L74.7235 29.1877L73.7942 31.7042L71.7982 32.1804L72.9147 29.3109C72.3084 29.2171 71.8035 28.9798 71.4001 28.599C70.9948 28.2105 70.7161 27.6972 70.5638 27.0591C70.4134 26.4288 70.4283 25.8536 70.6086 25.3336C70.7869 24.8058 71.1119 24.3581 71.5835 23.9906C72.0532 23.6153 72.646 23.3423 73.3619 23.1715L76.8869 22.3303ZM73.7762 24.7011C73.2393 24.8292 72.8566 25.0521 72.6281 25.3698C72.4074 25.6857 72.3555 26.0887 72.4725 26.579C72.5858 27.0536 72.8092 27.3869 73.1429 27.5787C73.4765 27.7705 73.9079 27.8032 74.437 27.677L76.0945 27.2815L75.387 24.3167L73.7762 24.7011Z" fill="#1CB4DB"/>
<path d="M141.646 60.9415L139.755 57.5304L137.82 57.7523L136.854 56.01L146.016 55.2125L146.947 56.8918L141.421 64.2491L140.432 62.4648L141.646 60.9415ZM142.64 59.6907L144.807 56.9666L141.348 57.3606L142.64 59.6907Z" fill="#1CB4DB"/>
<path d="M146.752 68.7911L146.353 67.5076L143.121 68.5117L142.548 66.6667L150.57 64.1743L151.143 66.0193L147.9 67.027L148.313 68.3563L152.211 69.4572L152.82 71.4168L148.131 69.996L144.823 73.9894L144.168 71.8808L146.752 68.7911Z" fill="#1CB4DB"/>
<path d="M147.937 84.9676L144.594 85.3072L144.413 83.5284L146.18 83.3489L145.471 76.3648L153.828 75.5159L154.023 77.438L147.242 78.1269L147.62 81.8517L154.401 81.1628L154.596 83.085L147.815 83.7738L147.937 84.9676Z" fill="#1CB4DB"/>
<path d="M154.788 88.3536L154.572 90.2735L149.134 89.6615L154.123 94.2563L153.919 96.0689L145.572 95.1294L145.787 93.2214L151.213 93.8321L146.235 89.2386L146.441 87.4141L154.788 88.3536Z" fill="#1CB4DB"/>
<path d="M150.885 107.426L142.908 104.792L143.51 102.969L145.63 103.669L146.187 101.983L144.534 99.8698L145.177 97.9213L147.032 100.379C147.431 99.9123 147.898 99.6074 148.434 99.4643C148.977 99.3236 149.56 99.3561 150.183 99.5619C150.799 99.7651 151.28 100.08 151.628 100.507C151.983 100.936 152.194 101.447 152.258 102.042C152.331 102.638 152.252 103.286 152.021 103.985L150.885 107.426ZM150.502 103.534C150.675 103.01 150.686 102.567 150.536 102.206C150.383 101.852 150.068 101.596 149.589 101.438C149.126 101.285 148.725 101.3 148.386 101.483C148.048 101.666 147.793 102.016 147.623 102.533L147.088 104.151L149.983 105.107L150.502 103.534Z" fill="#1CB4DB"/>
<path d="M37.1 113.012L38.9906 116.423L40.9257 116.201L41.8914 117.944L32.7294 118.741L31.7986 117.062L37.3247 109.705L38.3136 111.489L37.1 113.012ZM36.1057 114.263L33.9386 116.987L37.3972 116.593L36.1057 114.263Z" fill="#1CB4DB"/>
<path d="M31.994 105.163L32.3928 106.446L35.6244 105.442L36.1976 107.287L28.1759 109.779L27.6027 107.934L30.8457 106.927L30.4327 105.597L26.5345 104.497L25.9256 102.537L30.6143 103.958L33.9224 99.9643L34.5776 102.073L31.994 105.163Z" fill="#1CB4DB"/>
<path d="M30.8089 88.9861L34.1517 88.6465L34.3324 90.4254L32.5655 90.6049L33.275 97.5889L24.918 98.4378L24.7227 96.5157L31.5038 95.8269L31.1255 92.1021L24.3444 92.7909L24.1491 90.8688L30.9302 90.18L30.8089 88.9861Z" fill="#1CB4DB"/>
<path d="M23.9577 85.6002L24.1738 83.6803L29.6115 84.2923L24.6221 79.6974L24.8261 77.8849L33.1734 78.8244L32.9587 80.7323L27.5329 80.1216L32.5104 84.7152L32.305 86.5396L23.9577 85.6002Z" fill="#1CB4DB"/>
<path d="M27.861 66.5273L35.8373 69.1614L35.2352 70.9846L33.1158 70.2846L32.5589 71.9711L34.2117 74.0839L33.5682 76.0324L31.7133 73.5748C31.3149 74.0414 30.8478 74.3463 30.3118 74.4894C29.7683 74.6301 29.1851 74.5976 28.5622 74.3919C27.9469 74.1887 27.4653 73.8738 27.1175 73.4472C26.7622 73.0181 26.552 72.5064 26.4871 71.9121C26.4146 71.3153 26.4938 70.6674 26.7246 69.9685L27.861 66.5273ZM28.2437 70.4197C28.0706 70.9438 28.0592 71.3866 28.2095 71.7479C28.3623 72.1017 28.6779 72.3576 29.1565 72.5156C29.6199 72.6686 30.0208 72.6536 30.3593 72.4705C30.6978 72.2874 30.9524 71.9376 31.1229 71.421L31.6573 69.803L28.763 68.8472L28.2437 70.4197Z" fill="#1CB4DB"/>
<path d="M94.2971 28.288L90.398 28.2066L89.6166 29.9906L87.625 29.949L91.5436 21.6291L93.4632 21.6692L97.0429 30.1458L95.0034 30.1032L94.2971 28.288ZM93.7161 26.7996L92.4516 23.5564L91.0527 26.7439L93.7161 26.7996Z" fill="#1CB4DB"/>
<path d="M103.65 27.8228L102.34 27.5219L101.582 30.8201L99.6994 30.3876L101.58 22.2007L103.463 22.6332L102.702 25.943L104.059 26.2546L106.971 23.4391L108.971 23.8984L105.385 27.2363L107.173 32.104L105.021 31.6098L103.65 27.8228Z" fill="#1CB4DB"/>
<path d="M118.227 34.9345L116.84 37.9945L115.211 37.256L115.945 35.6386L109.552 32.7391L113.021 25.0891L114.781 25.887L111.965 32.0945L115.375 33.6409L118.19 27.4334L119.95 28.2314L117.135 34.4388L118.227 34.9345Z" fill="#1CB4DB"/>
<path d="M124.6 30.7158L126.15 31.8682L122.887 36.2602L129.367 34.2588L130.831 35.3467L125.821 42.0889L124.28 40.9437L127.537 36.5613L121.063 38.5531L119.589 37.458L124.6 30.7158Z" fill="#1CB4DB"/>
<path d="M139.122 43.6821L132.833 49.2514L131.56 47.814L133.231 46.3342L132.054 45.0047L129.396 45.3706L128.036 43.8344L131.093 43.4672C130.89 42.8882 130.861 42.3311 131.007 41.7959C131.159 41.2554 131.48 40.7676 131.971 40.3327C132.457 39.9031 132.971 39.6452 133.515 39.5592C134.064 39.4678 134.612 39.5436 135.158 39.7864C135.711 40.0239 136.231 40.4182 136.719 40.9691L139.122 43.6821ZM135.565 42.0553C135.199 41.642 134.822 41.4095 134.434 41.3576C134.051 41.3118 133.672 41.4559 133.294 41.7901C132.929 42.1136 132.74 42.4677 132.728 42.8523C132.716 43.237 132.891 43.6329 133.251 44.0402L134.381 45.3158L136.663 43.295L135.565 42.0553Z" fill="#1CB4DB"/>
<path d="M84.9478 145.822L88.847 145.903L89.6284 144.119L91.62 144.161L87.7014 152.481L85.7818 152.441L82.2021 143.964L84.2416 144.007L84.9478 145.822ZM85.5289 147.31L86.7934 150.553L88.1923 147.366L85.5289 147.31Z" fill="#1CB4DB"/>
<path d="M75.5952 146.287L76.9051 146.588L77.6626 143.29L79.5456 143.722L77.6653 151.909L75.7823 151.476L76.5425 148.167L75.1858 147.855L72.2737 150.671L70.2737 150.211L73.8599 146.873L72.0722 142.006L74.2241 142.5L75.5952 146.287Z" fill="#1CB4DB"/>
<path d="M61.0176 139.175L62.4053 136.115L64.0337 136.854L63.3002 138.471L69.6934 141.371L66.224 149.021L64.4645 148.223L67.2797 142.015L63.8699 140.469L61.0548 146.676L59.2953 145.878L62.1104 139.671L61.0176 139.175Z" fill="#1CB4DB"/>
<path d="M54.6452 143.394L53.0945 142.242L56.3584 137.849L49.8775 139.851L48.4135 138.763L53.4238 132.021L54.9649 133.166L51.7082 137.548L58.1819 135.557L59.6555 136.652L54.6452 143.394Z" fill="#1CB4DB"/>
<path d="M40.1234 130.428L46.4118 124.858L47.6847 126.296L46.0138 127.776L47.1913 129.105L49.8488 128.739L51.2093 130.275L48.1522 130.642C48.3551 131.222 48.3837 131.779 48.2379 132.314C48.0861 132.854 47.7646 133.342 47.2735 133.777C46.7884 134.207 46.2741 134.464 45.7305 134.551C45.1809 134.642 44.6329 134.566 44.0866 134.323C43.5343 134.086 43.0141 133.692 42.5261 133.141L40.1234 130.428ZM43.6801 132.054C44.0461 132.468 44.423 132.7 44.8109 132.752C45.1935 132.798 45.5735 132.654 45.9508 132.32C46.3161 131.996 46.5048 131.642 46.5167 131.257C46.5287 130.873 46.3544 130.477 45.9937 130.07L44.864 128.794L42.5822 130.815L43.6801 132.054Z" fill="#1CB4DB"/>
</svg>
