<svg width="50" height="50" viewBox="0 0 50 50" fill="none" xmlns="http://www.w3.org/2000/svg">
<path d="M11.8164 50H38.1836C42.2222 50 45.5078 46.7144 45.5078 42.6758V7.32422C45.5078 3.2856 42.2222 0 38.1836 0C29.6593 0 20.2477 0 11.8164 0C7.77779 0 4.49219 3.2856 4.49219 7.32422V42.6758C4.49219 46.7144 7.77779 50 11.8164 50ZM42.5781 7.32422V42.6758C42.5781 45.0989 40.6067 47.0703 38.1836 47.0703H38.1798C39.1014 45.8454 39.6484 44.3233 39.6484 42.6758V7.32422C39.6484 5.67665 39.1014 4.15459 38.1798 2.92969H38.1836C40.6067 2.92969 42.5781 4.90112 42.5781 7.32422ZM7.42188 7.32422C7.42188 4.90112 9.39331 2.92969 11.8164 2.92969H32.3242C34.7473 2.92969 36.7188 4.90112 36.7188 7.32422V42.6758C36.7188 45.0989 34.7473 47.0703 32.3242 47.0703C31.3992 47.0703 17.4225 47.0703 11.8164 47.0703C9.39331 47.0703 7.42188 45.0989 7.42188 42.6758V7.32422Z" fill="#1CB4DB"/>
<path d="M22.0703 32.2266C28.532 32.2266 33.7891 26.9695 33.7891 20.5078C33.7891 14.0461 28.532 8.78906 22.0703 8.78906C15.6086 8.78906 10.3516 14.0461 10.3516 20.5078C10.3516 26.9695 15.6086 32.2266 22.0703 32.2266ZM13.4041 21.9727H16.254C16.383 24.2081 16.8056 26.2978 17.4793 27.9995C15.3595 26.6956 13.8329 24.5182 13.4041 21.9727ZM22.0703 11.7188C23.0072 11.7188 24.6548 14.4642 24.9531 19.043H19.1875C19.4859 14.4642 21.1334 11.7188 22.0703 11.7188ZM24.9531 21.9727C24.6548 26.5514 23.0072 29.2969 22.0703 29.2969C21.1334 29.2969 19.4859 26.5514 19.1875 21.9727H24.9531ZM26.6613 27.9995C27.335 26.2978 27.7576 24.2069 27.8866 21.9715H30.7365C30.3078 24.5174 28.7811 26.6956 26.6613 27.9995ZM30.7365 19.043H27.8866C27.7576 16.8076 27.335 14.7179 26.6613 13.0161C28.7811 14.32 30.3078 16.4974 30.7365 19.043ZM17.4793 13.0161C16.8056 14.7179 16.383 16.8076 16.254 19.043H13.4041C13.8329 16.4974 15.3595 14.32 17.4793 13.0161Z" fill="#1CB4DB"/>
<path d="M29.3945 35.3516H14.7461C13.937 35.3516 13.2812 36.0073 13.2812 36.8164C13.2812 37.6255 13.937 38.2812 14.7461 38.2812H29.3945C30.2036 38.2812 30.8594 37.6255 30.8594 36.8164C30.8594 36.0073 30.2036 35.3516 29.3945 35.3516Z" fill="#1CB4DB"/>
<path d="M26.4648 41.2109H17.6758C16.8667 41.2109 16.2109 41.8667 16.2109 42.6758C16.2109 43.4849 16.8667 44.1406 17.6758 44.1406H26.4648C27.2739 44.1406 27.9297 43.4849 27.9297 42.6758C27.9297 41.8667 27.2739 41.2109 26.4648 41.2109Z" fill="#1CB4DB"/>
</svg>
