<svg width="42" height="50" viewBox="0 0 42 50" fill="none" xmlns="http://www.w3.org/2000/svg">
<path d="M41.0059 28.4446V27.611C41.0059 25.4177 39.2215 23.6333 37.0282 23.6333H30.2228C30.1019 22.7887 29.7137 22.0088 29.0994 21.3946C28.8617 21.1569 28.5958 20.9538 28.3105 20.785V17.0618C31.3068 15.4576 33.1934 12.349 33.1934 8.88851C33.1934 4.86947 30.6299 1.32728 26.8146 0.0741534C25.8686 -0.236491 24.8926 0.468978 24.8926 1.46585V8.74398H22.9395V1.46575C22.9395 0.468489 21.9627 -0.236686 21.0174 0.0741534C17.2123 1.32425 14.6489 4.85628 14.6387 8.86351C14.6304 12.3527 16.5881 15.4655 19.5215 17.052V20.2443C17.6495 20.3549 16.1251 21.2193 15.721 21.5787L11.9146 24.9634H2.45898C1.65 24.9634 0.994141 25.6193 0.994141 26.4283V44.7765C0.994141 45.5855 1.65 46.2413 2.45898 46.2413H9.73438C11.4915 46.2413 13.3857 47.2266 15.2177 48.1793C16.7404 48.9712 18.5243 50 21.3311 50H34.0984C36.2917 50 38.0761 48.2157 38.0761 46.0224V45.1888C38.0761 44.4874 37.8929 43.8283 37.573 43.2555C38.4747 42.5257 39.0526 41.4109 39.0526 40.1631V39.3295C39.0526 38.6282 38.8694 37.9691 38.5495 37.3963C39.4513 36.6665 40.0292 35.5518 40.0292 34.304V33.4701C40.0292 32.7688 39.846 32.1097 39.5261 31.5369C40.4279 30.8072 41.0059 29.6923 41.0059 28.4446ZM38.0762 27.611V28.4446C38.0762 29.0224 37.6061 29.4926 37.0282 29.4926C36.285 29.4926 31.094 29.4926 30.2637 29.4926V26.563H37.0282C37.6061 26.563 38.0762 27.0331 38.0762 27.611ZM37.0996 33.4701V34.304C37.0996 34.8818 36.6296 35.3519 36.0518 35.3519C35.4396 35.3519 30.8596 35.3519 30.1995 35.3519C30.2409 35.1102 30.2636 34.8621 30.2636 34.6088V32.4222H36.0517C36.6295 32.4222 37.0996 32.8923 37.0996 33.4701ZM36.123 39.3295V40.1631C36.123 40.7409 35.6529 41.2112 35.0751 41.2112C34.3601 41.2112 29.5515 41.2112 28.7985 41.2112C27.9908 41.2112 27.3337 40.554 27.3337 39.7463C27.3337 38.9386 27.9908 38.2815 28.7985 38.2815H28.7988H35.0751C35.6529 38.2815 36.123 38.7517 36.123 39.3295ZM17.5684 8.87083C17.5734 6.87698 18.5023 5.05501 20.0098 3.8805V8.88167C20.0098 10.4211 21.2623 11.6736 22.8018 11.6736H25.0303C26.5698 11.6736 27.8223 10.4211 27.8223 8.88167V3.88001C29.3344 5.05765 30.2637 6.88665 30.2637 8.88851C30.2637 11.4894 28.7064 13.7998 26.2964 14.7746C25.743 14.9985 25.3809 15.5357 25.3809 16.1326V20.2301H22.4512V16.1267C22.4512 15.5315 22.091 14.9955 21.54 14.7705C19.1583 13.7981 17.5622 11.427 17.5684 8.87083ZM16.5695 45.5802C14.525 44.5169 12.2077 43.3116 9.73438 43.3116H3.92383V27.893H12.4717C12.8306 27.893 13.177 27.7613 13.4451 27.5229L17.583 23.8434C18.2961 23.3958 19.1168 23.1597 19.9629 23.1597H26.2881C26.8643 23.1597 27.334 23.626 27.334 24.2046V34.6088C27.334 35.4165 26.6769 36.0737 25.8691 36.0737C25.0603 36.0737 24.4043 35.4176 24.4043 34.6088V29.4789C24.4043 28.7172 23.8256 28.0552 23.0665 27.9918C22.311 27.9287 21.6383 28.4251 21.5071 29.17C21.4258 29.4771 20.7397 31.5523 17.0791 31.5523C16.2701 31.5523 15.6143 32.2081 15.6143 33.0171C15.6143 33.8261 16.2701 34.482 17.0791 34.482C19.0167 34.482 20.442 34.029 21.4746 33.4444V34.609C21.4746 36.578 22.7631 38.2226 24.5104 38.7889C24.1985 40.1859 24.5824 41.6227 25.5266 42.6761C24.4489 43.8783 24.1203 45.5604 24.656 47.0705H21.3311C19.3314 47.0704 18.0931 46.3727 16.5695 45.5802ZM35.1465 46.0224C35.1465 46.6002 34.6764 47.0704 34.0985 47.0704H28.7988H28.7985C27.9908 47.0704 27.3337 46.4133 27.3337 45.6056C27.3337 44.7979 27.9908 44.1408 28.7985 44.1408H34.0985C34.6764 44.1408 35.1465 44.6109 35.1465 45.1888V46.0224Z" fill="#1CB4DB"/>
</svg>
