<svg width="50" height="51" viewBox="0 0 50 51" fill="none" xmlns="http://www.w3.org/2000/svg">
<g clip-path="url(#clip0)">
<path d="M25 0.5C11.1827 0.5 0 11.6814 0 25.5C0 39.3174 11.1814 50.5 25 50.5C38.8173 50.5 50 39.3186 50 25.5C50 11.6826 38.8186 0.5 25 0.5ZM25 47.2742C12.9936 47.2742 3.22581 37.5064 3.22581 25.5C3.22581 13.4936 12.9936 3.72581 25 3.72581C37.0064 3.72581 46.7742 13.4936 46.7742 25.5C46.7742 37.5064 37.0064 47.2742 25 47.2742ZM25 5.33871C13.8831 5.33871 4.83871 14.3831 4.83871 25.5C4.83871 36.6169 13.8831 45.6613 25 45.6613C36.1169 45.6613 45.1613 36.6169 45.1613 25.5C45.1613 14.3831 36.1169 5.33871 25 5.33871ZM25 42.4355C15.6617 42.4355 8.06452 34.8382 8.06452 25.5C8.06452 16.1618 15.6617 8.56452 25 8.56452C34.3383 8.56452 41.9355 16.1618 41.9355 25.5C41.9355 34.8382 34.3383 42.4355 25 42.4355ZM26.3609 14.8145H21.8246C20.9338 14.8145 20.2117 15.5366 20.2117 16.4274V23.2823H19.4052C18.5144 23.2823 17.7923 24.0043 17.7923 24.8952C17.7923 25.786 18.5144 26.5081 19.4052 26.5081H20.2117V28.3226H19.4052C18.5144 28.3226 17.7923 29.0447 17.7923 29.9355C17.7923 30.8263 18.5144 31.5484 19.4052 31.5484H20.2117V34.5726C20.2117 35.4634 20.9338 36.1855 21.8246 36.1855C22.7154 36.1855 23.4375 35.4634 23.4375 34.5726V31.5484H27.5706C28.4614 31.5484 29.1835 30.8263 29.1835 29.9355C29.1835 29.0447 28.4614 28.3226 27.5706 28.3226H23.4375V26.5081H26.3609C29.5848 26.5081 32.2077 23.8852 32.2077 20.6613C32.2077 17.4374 29.5848 14.8145 26.3609 14.8145ZM26.3609 23.2823H23.4375V18.0403H26.3609C27.8061 18.0403 28.9819 19.2161 28.9819 20.6613C28.9819 22.1065 27.8061 23.2823 26.3609 23.2823Z" fill="#1CB4DB"/>
</g>
<defs>
<clipPath id="clip0">
<rect width="50" height="50" fill="white" transform="translate(0 0.5)"/>
</clipPath>
</defs>
</svg>
