<svg width="50" height="51" viewBox="0 0 50 51" fill="none" xmlns="http://www.w3.org/2000/svg">
<g clip-path="url(#clip0)">
<path d="M33.607 21.7702H4.83871C2.17056 21.7702 0 23.9408 0 26.6089V45.6613C0 48.3293 2.17056 50.5 4.83871 50.5H33.607C36.2751 50.5 38.4457 48.3293 38.4457 45.6613V26.6089C38.4457 23.9408 36.2751 21.7702 33.607 21.7702ZM35.2199 45.6613C35.2199 46.5506 34.4963 47.2742 33.607 47.2742H4.83871C3.9494 47.2742 3.22581 46.5506 3.22581 45.6613V26.6089C3.22581 25.7196 3.9494 24.996 4.83871 24.996H33.607C34.4963 24.996 35.2199 25.7196 35.2199 26.6089V45.6613ZM27.4424 44.115C27.143 44.3593 26.7823 44.4782 26.4239 44.4782C24.9177 44.4782 24.2262 42.5759 25.4033 41.6155C28.8545 38.7998 28.8289 33.5272 25.3586 30.7428C24.6637 30.1855 24.5523 29.1703 25.1097 28.4754C25.667 27.7806 26.6823 27.6691 27.377 28.2266C32.447 32.2941 32.4812 40.0054 27.4424 44.115ZM24.7369 39.6509C24.422 39.9658 24.0092 40.1234 23.5965 40.1234C22.1726 40.1234 21.4368 38.3892 22.456 37.3701C23.1077 36.7184 23.1077 35.6582 22.456 35.0065C21.8261 34.3765 21.8262 33.3553 22.456 32.7255C23.086 32.0958 24.1073 32.0957 24.737 32.7255C26.6462 34.6349 26.6462 37.7416 24.7369 39.6509ZM50 5.74194V45.2581C50 48.1485 47.6485 50.5 44.7581 50.5C43.8672 50.5 43.1452 49.7778 43.1452 48.8871C43.1452 47.9964 43.8672 47.2742 44.7581 47.2742C45.8698 47.2742 46.7742 46.3698 46.7742 45.2581V5.74194C46.7742 4.63024 45.8698 3.72581 44.7581 3.72581H23.1855C22.0738 3.72581 21.1694 4.63024 21.1694 5.74194V15.8226C21.1694 16.7133 20.4473 17.4355 19.5565 17.4355C18.6656 17.4355 17.9435 16.7133 17.9435 15.8226V5.74194C17.9435 2.85151 20.2951 0.5 23.1855 0.5H44.7581C47.6485 0.5 50 2.85151 50 5.74194ZM13.718 27.6842H7.52692C6.63609 27.6842 5.91401 28.4064 5.91401 29.2971V35.4883C5.91401 36.379 6.63609 37.1012 7.52692 37.1012H13.718C14.6089 37.1012 15.3309 36.379 15.3309 35.4883V29.2971C15.3309 28.4062 14.6089 27.6842 13.718 27.6842ZM12.1051 33.8753H9.13982V30.9099H12.1051V33.8753ZM26.7137 9.37097C25.8229 9.37097 25.1008 8.64879 25.1008 7.75806C25.1008 6.86734 25.8229 6.14516 26.7137 6.14516H41.2298C42.1207 6.14516 42.8427 6.86734 42.8427 7.75806C42.8427 8.64879 42.1207 9.37097 41.2298 9.37097H26.7137ZM42.9436 28.4234C42.0527 28.4234 41.3306 27.7012 41.3306 26.8105V15.8226C41.3306 15.3779 40.9688 15.0161 40.5242 15.0161H27.4194C26.9747 15.0161 26.6129 15.3779 26.6129 15.8226V18.2923C26.6129 19.1831 25.8908 19.9052 25 19.9052C24.1092 19.9052 23.3871 19.1831 23.3871 18.2923V15.8226C23.3871 13.5992 25.196 11.7903 27.4194 11.7903H40.5242C42.7476 11.7903 44.5565 13.5992 44.5565 15.8226V26.8105C44.5565 27.7012 43.8344 28.4234 42.9436 28.4234Z" fill="#1CB4DB"/>
</g>
<defs>
<clipPath id="clip0">
<rect width="50" height="50" fill="white" transform="translate(0 0.5)"/>
</clipPath>
</defs>
</svg>
