<svg width="51" height="51" viewBox="0 0 51 51" fill="none" xmlns="http://www.w3.org/2000/svg">
<g clip-path="url(#clip0)">
<path d="M45.6613 6.95162H5.33871C2.67056 6.95162 0.5 9.12229 0.5 11.7903V39.2097C0.5 41.8777 2.67056 44.0484 5.33871 44.0484H45.6613C48.3294 44.0484 50.5 41.8777 50.5 39.2097V11.7903C50.5 9.12229 48.3294 6.95162 45.6613 6.95162ZM47.2742 39.2097C47.2742 40.099 46.5506 40.8226 45.6613 40.8226H5.33871C4.4494 40.8226 3.72581 40.099 3.72581 39.2097V11.7903C3.72581 10.901 4.4494 10.1774 5.33871 10.1774H45.6613C46.5506 10.1774 47.2742 10.901 47.2742 11.7903V39.2097ZM10.9839 23.8871H14.2097C16.4331 23.8871 18.2419 22.0782 18.2419 19.8548V16.629C18.2419 14.4057 16.4331 12.5968 14.2097 12.5968H10.9839C8.76048 12.5968 6.95161 14.4057 6.95161 16.629V19.8548C6.95161 22.0782 8.76048 23.8871 10.9839 23.8871ZM10.1774 16.629C10.1774 16.1844 10.5392 15.8226 10.9839 15.8226H14.2097C14.6543 15.8226 15.0161 16.1844 15.0161 16.629V19.8548C15.0161 20.2995 14.6543 20.6613 14.2097 20.6613H10.9839C10.5392 20.6613 10.1774 20.2995 10.1774 19.8548V16.629ZM6.95161 28.7258C6.95161 27.8351 7.67369 27.1129 8.56452 27.1129H10.9839C11.8747 27.1129 12.5968 27.8351 12.5968 28.7258C12.5968 29.6165 11.8747 30.3387 10.9839 30.3387H8.56452C7.67369 30.3387 6.95161 29.6165 6.95161 28.7258ZM41.629 28.7258C41.629 29.6165 40.907 30.3387 40.0161 30.3387H37.5968C36.7059 30.3387 35.9839 29.6165 35.9839 28.7258C35.9839 27.8351 36.7059 27.1129 37.5968 27.1129H40.0161C40.907 27.1129 41.629 27.8351 41.629 28.7258ZM23.0806 28.7258C23.0806 29.6165 22.3586 30.3387 21.4677 30.3387H16.629C15.7382 30.3387 15.0161 29.6165 15.0161 28.7258C15.0161 27.8351 15.7382 27.1129 16.629 27.1129H21.4677C22.3586 27.1129 23.0806 27.8351 23.0806 28.7258ZM33.5645 28.7258C33.5645 29.6165 32.8424 30.3387 31.9516 30.3387H27.1129C26.2221 30.3387 25.5 29.6165 25.5 28.7258C25.5 27.8351 26.2221 27.1129 27.1129 27.1129H31.9516C32.8424 27.1129 33.5645 27.8351 33.5645 28.7258ZM20.9637 35.1774C20.9637 36.0682 20.2416 36.7903 19.3508 36.7903H8.56452C7.67369 36.7903 6.95161 36.0682 6.95161 35.1774C6.95161 34.2867 7.67369 33.5645 8.56452 33.5645H19.3508C20.2416 33.5645 20.9637 34.2867 20.9637 35.1774Z" fill="#1CB4DB"/>
</g>
<defs>
<clipPath id="clip0">
<rect width="50" height="50" fill="white" transform="translate(0.5 0.5)"/>
</clipPath>
</defs>
</svg>
