<svg width="50" height="51" viewBox="0 0 50 51" fill="none" xmlns="http://www.w3.org/2000/svg">
<g clip-path="url(#clip0)">
<path d="M39.5507 25.5981C36.3199 25.5981 33.6913 28.2266 33.6913 31.4574C33.6913 34.6883 36.3199 37.3168 39.5507 37.3168H47.8515C47.8846 37.3168 47.9169 37.3135 47.9496 37.3118C47.982 37.3134 48.014 37.3167 48.0468 37.3167C49.1255 37.3167 49.9999 36.4423 49.9999 35.3636V20.0316C49.9999 17.4314 48.7219 15.1252 46.7621 13.7044L40.1176 2.80405C39.8467 2.35952 39.4095 2.04155 38.9031 1.92085C38.3966 1.79995 37.863 1.88638 37.4205 2.16079L32.5204 5.19946L30.3107 1.45982C30.045 1.01021 29.6104 0.685794 29.1038 0.558841C28.5974 0.431888 28.061 0.513236 27.6148 0.784329L8.79969 12.2191H5.85936C4.79872 12.2191 3.93281 11.3693 3.90683 10.3148C3.93281 9.26029 4.79872 8.41049 5.85936 8.41049H9.47264C10.5513 8.41049 11.4258 7.53607 11.4258 6.45737C11.4258 5.37866 10.5513 4.50424 9.47264 4.50424H5.85936C3.09589 4.50424 0.773338 6.42748 0.159179 9.0057C0.0570311 9.24261 0 9.50336 0 9.77767V10.266V10.3636V42.6878C0 46.9956 3.50468 50.5002 7.81249 50.5002H42.1874C45.5556 50.5002 48.5344 48.3547 49.5996 45.1613C49.941 44.1381 49.3882 43.0318 48.3649 42.6905C47.3418 42.3492 46.2355 42.9019 45.8941 43.9252C45.3616 45.5215 43.8721 46.594 42.1874 46.594H7.81249C5.65858 46.594 3.90624 44.8417 3.90624 42.6878V15.7903C4.51747 16.0071 5.17479 16.1253 5.85936 16.1253H42.1874C44.3413 16.1253 46.0937 17.8777 46.0937 20.0316V25.5981H39.5507ZM46.0937 33.4104H39.5507C38.4738 33.4105 37.5976 32.5344 37.5976 31.4573C37.5976 30.3804 38.4738 29.5042 39.5507 29.5042H46.0937V33.4104ZM16.3211 12.2192L27.9538 5.14956L30.0335 8.66918C30.0735 8.76537 30.1194 8.86019 30.176 8.9516C30.2185 9.02006 30.2656 9.08383 30.3147 9.14515L32.1311 12.2192H16.3211ZM36.6684 12.2191L34.5081 8.56322L37.8066 6.51781L41.282 12.2191H36.6684Z" fill="#1CB4DB"/>
</g>
<defs>
<clipPath id="clip0">
<rect width="50" height="50" fill="white" transform="translate(0 0.5)"/>
</clipPath>
</defs>
</svg>
