<svg width="50" height="51" viewBox="0 0 50 51" fill="none" xmlns="http://www.w3.org/2000/svg">
<g clip-path="url(#clip0)">
<path d="M44.2885 38.8563C44.3785 38.5491 44.3542 40.9065 44.3542 2.1129C44.3542 1.22218 43.632 0.5 42.7413 0.5H7.25743C6.36671 0.5 5.64453 1.22218 5.64453 2.1129V48.8871C5.64453 49.7778 6.36671 50.5 7.25743 50.5H32.2561C32.5831 50.5 32.8931 50.4014 33.1509 50.2298C33.3497 50.0976 43.8925 39.5456 44.0047 39.4041C44.1296 39.2466 44.2258 39.0703 44.2885 38.8563ZM8.87034 3.72581H41.1284V36.7903H32.2574C31.3667 36.7903 30.6445 37.5125 30.6445 38.4032V47.2742H8.87034V3.72581ZM33.8703 44.9932V40.0161H38.8475L33.8703 44.9932ZM18.5478 21.2742C18.5478 20.6328 18.1403 20.0614 17.5339 19.8523L15.2841 19.0765C13.3773 18.4191 12.0961 16.622 12.0961 14.605C12.0961 12.5228 13.4493 10.7517 15.322 10.1218V8.61966C15.322 7.72893 16.0441 7.00675 16.9349 7.00675C17.8256 7.00675 18.5478 7.72893 18.5478 8.61966V10.1216C20.4204 10.7515 21.7736 12.5226 21.7736 14.6048C21.7736 15.4956 21.0514 16.2177 20.1607 16.2177C19.2699 16.2177 18.5478 15.4956 18.5478 14.6048C18.5478 13.7755 17.8731 13.1008 17.0437 13.1008H16.8261C15.9967 13.1008 15.3221 13.7755 15.3221 14.6048C15.3221 15.2463 15.7295 15.8176 16.3359 16.0267L18.5857 16.8025C20.4925 17.46 21.7737 19.2571 21.7737 21.274C21.7737 23.3563 20.4205 25.1273 18.5479 25.7573V27.2592C18.5479 28.1499 17.8257 28.8721 16.935 28.8721C16.0442 28.8721 15.3221 28.1499 15.3221 27.2592V25.7573C13.4494 25.1273 12.0962 23.3563 12.0962 21.274C12.0962 20.3833 12.8184 19.6611 13.7091 19.6611C14.5999 19.6611 15.3221 20.3833 15.3221 21.274C15.3221 22.1033 15.9967 22.778 16.8261 22.778H17.0437C17.8731 22.7782 18.5478 22.1035 18.5478 21.2742ZM26.1082 11.4879C26.1082 10.5972 26.8304 9.875 27.7211 9.875H36.2897C37.1804 9.875 37.9026 10.5972 37.9026 11.4879C37.9026 12.3786 37.1804 13.1008 36.2897 13.1008H27.7211C26.8304 13.1008 26.1082 12.3786 26.1082 11.4879ZM26.1082 19.5524C26.1082 18.6617 26.8304 17.9395 27.7211 17.9395H36.2897C37.1804 17.9395 37.9026 18.6617 37.9026 19.5524C37.9026 20.4431 37.1804 21.1653 36.2897 21.1653H27.7211C26.8304 21.1653 26.1082 20.4431 26.1082 19.5524ZM26.1082 27.6169C26.1082 26.7262 26.8304 26.004 27.7211 26.004H36.2897C37.1804 26.004 37.9026 26.7262 37.9026 27.6169C37.9026 28.5077 37.1804 29.2298 36.2897 29.2298H27.7211C26.8304 29.2298 26.1082 28.5077 26.1082 27.6169ZM28.2252 35.6815C28.2252 36.5722 27.503 37.2944 26.6123 37.2944H13.6082C12.7175 37.2944 11.9953 36.5722 11.9953 35.6815C11.9953 34.7907 12.7175 34.0686 13.6082 34.0686H26.6123C27.5031 34.0686 28.2252 34.7907 28.2252 35.6815Z" fill="#1CB4DB"/>
</g>
<defs>
<clipPath id="clip0">
<rect width="50" height="50" fill="white" transform="translate(0 0.5)"/>
</clipPath>
</defs>
</svg>
