<svg width="47" height="50" viewBox="0 0 47 50" fill="none" xmlns="http://www.w3.org/2000/svg">
<g clip-path="url(#clip0)">
<path d="M15.3254 8.78906H9.89476C9.14498 8.78906 8.53711 9.44492 8.53711 10.2539C8.53711 11.0629 9.14498 11.7188 9.89476 11.7188H15.3254C16.0752 11.7188 16.683 11.0629 16.683 10.2539C16.683 9.44492 16.0752 8.78906 15.3254 8.78906Z" fill="#1CB4DB"/>
<path d="M15.3254 17.5781H9.89476C9.14498 17.5781 8.53711 18.234 8.53711 19.043C8.53711 19.852 9.14498 20.5078 9.89476 20.5078H15.3254C16.0752 20.5078 16.683 19.852 16.683 19.043C16.683 18.234 16.0752 17.5781 15.3254 17.5781Z" fill="#1CB4DB"/>
<path d="M18.2217 26.5625H9.89476C9.14498 26.5625 8.53711 27.2184 8.53711 28.0273C8.53711 28.8363 9.14498 29.4922 9.89476 29.4922H18.2217C18.9715 29.4922 19.5793 28.8363 19.5793 28.0273C19.5793 27.2184 18.9715 26.5625 18.2217 26.5625Z" fill="#1CB4DB"/>
<path d="M34.5135 35.3516H9.89476C9.14498 35.3516 8.53711 36.0074 8.53711 36.8164C8.53711 37.6254 9.14498 38.2812 9.89476 38.2812H34.5135C35.2633 38.2812 35.8712 37.6254 35.8712 36.8164C35.8712 36.0074 35.2633 35.3516 34.5135 35.3516Z" fill="#1CB4DB"/>
<path d="M39.9445 0H7.17986C4.93403 0 3.10691 1.97139 3.10691 4.39453V41.2109H1.74925C0.999468 41.2109 0.391602 41.8668 0.391602 42.6758V44.1406C0.391602 47.3715 2.82777 50 5.82221 50H35.8716C38.866 50 41.3022 47.3715 41.3022 44.1406V11.7188H45.3751C46.1249 11.7188 46.7328 11.0629 46.7328 10.2539V7.32422C46.7328 3.28564 43.6876 0 39.9445 0ZM5.82221 47.0703C4.32499 47.0703 3.10691 45.7561 3.10691 44.1406H30.441C30.441 45.207 30.7065 46.208 31.1698 47.0703H5.82221ZM38.5869 10.2539V44.1406C38.5869 45.7561 37.3688 47.0703 35.8716 47.0703C34.3744 47.0703 33.1563 45.7561 33.1563 44.1406V42.6758C33.1563 41.8668 32.5484 41.2109 31.7986 41.2109H5.82221V4.39453C5.82221 3.58682 6.43125 2.92969 7.17986 2.92969H38.5869V10.2539ZM44.0175 8.78906H41.3022V3.18066C42.8826 3.78525 44.0175 5.41445 44.0175 7.32422V8.78906Z" fill="#1CB4DB"/>
<path d="M27.726 5.85938C23.2343 5.85938 19.5801 9.80215 19.5801 14.6484C19.5801 17.2456 20.6299 19.5829 22.2954 21.1934V30.957C22.2954 31.4973 22.571 31.9937 23.0124 32.2485C23.4538 32.5034 23.9896 32.4755 24.4061 32.1759L27.726 29.7879L31.0459 32.1759C31.2731 32.3393 31.5357 32.4219 31.799 32.4219C32.0187 32.4219 32.2388 32.3645 32.4396 32.2485C32.881 31.9937 33.1566 31.4973 33.1566 30.957V21.1934C34.8221 19.5829 35.8719 17.2456 35.8719 14.6484C35.8719 9.80215 32.2176 5.85938 27.726 5.85938ZM30.4413 28.2199L28.479 26.8085C28.023 26.4806 27.4289 26.4806 26.9729 26.8085L25.0107 28.2199V22.9348C25.8604 23.2599 26.7743 23.4375 27.726 23.4375C28.6777 23.4375 29.5916 23.2599 30.4413 22.9348V28.2199ZM27.726 20.5078C24.7316 20.5078 22.2954 17.8793 22.2954 14.6484C22.2954 11.4176 24.7316 8.78906 27.726 8.78906C30.7204 8.78906 33.1566 11.4176 33.1566 14.6484C33.1566 17.8793 30.7204 20.5078 27.726 20.5078Z" fill="#1CB4DB"/>
</g>
<defs>
<clipPath id="clip0">
<rect width="46.3412" height="50" fill="white" transform="translate(0.391602)"/>
</clipPath>
</defs>
</svg>
