<svg width="51" height="50" viewBox="0 0 51 50" fill="none" xmlns="http://www.w3.org/2000/svg">
<path d="M49.5186 26.6732H35.2933V10.5235C35.2933 10.0002 35.0141 9.5166 34.5608 9.25498L18.8708 0.196289C18.4176 -0.0654297 17.8592 -0.0654297 17.406 0.196289L1.71582 9.25498C1.2626 9.5166 0.983398 10.0002 0.983398 10.5235V28.6409C0.983398 29.1643 1.2626 29.6479 1.71582 29.9095L16.6735 38.5453V48.5352C16.6735 49.3441 17.3294 50 18.1384 50H49.5186C50.3275 50 50.9834 49.3441 50.9834 48.5352V28.1381C50.9834 27.3291 50.3275 26.6732 49.5186 26.6732ZM19.6032 26.6732V20.4279L24.5186 17.59V19.3962C24.5903 21.3371 27.3767 21.3367 27.4482 19.3962V15.8986L32.3637 13.0607V26.6732H19.6032ZM24.3489 29.6029C23.7961 31.9467 21.947 33.7959 19.6032 34.3486V29.6029H24.3489ZM18.1384 3.15625L30.8988 10.5234L25.9838 13.3611L13.2232 5.99395L18.1384 3.15625ZM16.6735 35.1623L3.91309 27.7952V13.0607L16.6735 20.4279V35.1623ZM5.37793 10.5235L10.2937 7.68545L23.0541 15.0527L18.1384 17.8908L5.37793 10.5235ZM19.6032 47.0703V42.3246C21.947 42.8773 23.7962 44.7266 24.3489 47.0703H19.6032ZM48.0537 47.0703H43.308C43.8607 44.7266 45.71 42.8773 48.0537 42.3246V47.0703ZM48.0537 39.3404C44.0907 39.9692 40.9526 43.1073 40.3238 47.0703H27.3331C26.7043 43.1073 23.5661 39.9692 19.6031 39.3404V37.3328C23.5661 36.704 26.7042 33.5659 27.3331 29.6029H40.3237C40.9525 33.5659 44.0906 36.704 48.0536 37.3328V39.3404H48.0537ZM48.0537 34.3485C45.71 33.7958 43.8607 31.9466 43.308 29.6028H48.0537V34.3485Z" fill="#1CB4DB"/>
<path d="M33.8287 32.9492C30.8581 32.9492 28.4414 35.3659 28.4414 38.3365C28.7122 45.4738 38.9463 45.4719 39.2161 38.3364C39.2161 35.3659 36.7993 32.9492 33.8287 32.9492ZM33.8287 40.7942C32.4735 40.7942 31.3711 39.6917 31.3711 38.3365C31.4946 35.0806 36.1634 35.0815 36.2864 38.3365C36.2864 39.6917 35.1839 40.7942 33.8287 40.7942Z" fill="#1CB4DB"/>
</svg>
