<svg width="51" height="51" viewBox="0 0 51 51" fill="none" xmlns="http://www.w3.org/2000/svg">
<g clip-path="url(#clip0)">
<path d="M44.8663 15.0148L30.5551 15.0141L36.5872 9.79136C37.8762 8.67556 38.5453 6.99405 38.3771 5.29345C38.21 3.60431 37.275 2.15968 35.8121 1.32922C35.748 1.2926 35.6828 1.2575 35.6175 1.22393C34.6124 0.70628 33.4878 0.518978 32.3659 0.682629C30.3891 0.970639 28.6916 2.41793 28.0408 4.37297L25.8916 10.8763L23.7416 4.3703C23.0916 2.41793 21.3944 0.970639 19.4173 0.682629C18.2954 0.518978 17.1708 0.70628 16.1668 1.22317C16.1004 1.2575 16.0352 1.2926 15.9711 1.32922C14.5081 2.15968 13.5732 3.60431 13.4061 5.29345C13.2379 6.99405 13.907 8.67556 15.1959 9.79136L21.2281 15.0141L6.91309 15.0148C4.48999 15.0148 2.51855 16.9863 2.51855 19.4094V46.2305C2.51855 48.6536 4.48999 50.625 6.91309 50.625H44.8663C47.2894 50.625 49.2608 48.6536 49.2608 46.2305V19.4094C49.2604 16.9863 47.2894 15.0148 44.8663 15.0148ZM46.3311 46.2305C46.3311 47.0384 45.6738 47.6953 44.8663 47.6953H32.4155V17.9445H44.8663C45.6738 17.9445 46.3311 18.6014 46.3311 19.4094V46.2305ZM5.44824 46.2305V19.4094C5.44824 18.6014 6.10551 17.9445 6.91309 17.9445H19.3635V47.6953H6.91309C6.10513 47.6953 5.44824 47.0384 5.44824 46.2305ZM22.2932 17.9438H29.4858V47.6953H22.2932V17.9438ZM30.8217 5.29536C31.125 4.38403 31.8967 3.7115 32.7882 3.58142C32.9091 3.56387 33.03 3.5551 33.1502 3.5551C33.5416 3.5551 33.9253 3.64779 34.2774 3.82899C34.3076 3.84463 34.3369 3.86065 34.3659 3.87706C34.99 4.23144 35.3894 4.85286 35.4619 5.58184C35.5374 6.34822 35.249 7.0753 34.67 7.57655L28.2231 13.1578L30.8217 5.29536ZM16.3217 5.58184C16.3938 4.85286 16.7932 4.23144 17.4172 3.87706C17.4462 3.86065 17.476 3.84463 17.5069 3.82861C17.8582 3.64779 18.2416 3.5551 18.633 3.5551C18.7531 3.5551 18.8741 3.56387 18.9954 3.58142C19.8865 3.7115 20.6586 4.38403 20.9607 5.29269L23.56 13.1578L17.1136 7.57655C16.5341 7.0753 16.2457 6.34822 16.3217 5.58184Z" fill="#1CB4DB"/>
</g>
<defs>
<clipPath id="clip0">
<rect width="50" height="50" fill="white" transform="translate(0.858398 0.625)"/>
</clipPath>
</defs>
</svg>
