<svg width="58" height="58" viewBox="0 0 58 58" fill="none" xmlns="http://www.w3.org/2000/svg">
<g clip-path="url(#clip0)">
<path d="M53.6021 26.4361H52.9345L50.8364 17.1742C50.5481 15.9022 49.437 15.014 48.1328 15.014H39.6572V12.2416C39.6572 10.1014 37.9162 8.36035 35.776 8.36035C34.4605 8.36035 5.93057 8.36035 4.61479 8.36035C2.47447 8.36035 0.733398 10.1014 0.733398 12.2416V39.5215C0.733398 41.6606 2.47447 43.4028 4.61468 43.4028H7.75743C8.52367 46.9625 11.6963 49.6395 15.4823 49.6395C19.2683 49.6395 22.4409 46.9625 23.2072 43.4028H39.1681C39.9343 46.9625 43.107 49.6395 46.893 49.6395C50.7299 49.6395 53.937 46.8916 54.6467 43.2598C56.2813 42.8029 57.4834 41.3003 57.4834 39.5215V30.3173C57.4834 28.1771 55.7423 26.4361 53.6021 26.4361ZM54.1565 30.3174V38.6312C52.9478 35.8145 50.1466 33.8372 46.893 33.8372C43.6638 33.8372 40.8815 35.7846 39.6571 38.5669V29.763H53.602C53.9081 29.7629 54.1565 30.0112 54.1565 30.3174ZM47.6893 18.3408L49.5234 26.4361H39.6572V18.3408H47.6893ZM25.6668 11.6872V17.6976L20.8153 15.7492C20.419 15.5898 19.9733 15.5891 19.5754 15.7492L14.7238 17.6976V11.6872H25.6668ZM4.06026 39.5215V12.2416C4.06026 11.9356 4.30865 11.6872 4.61468 11.6872H11.397V20.1584C11.397 21.3336 12.5854 22.1405 13.6803 21.702L20.1953 19.0861L26.7104 21.702C27.8071 22.1407 28.9937 21.3317 28.9937 20.1584V11.6872H35.776C36.082 11.6872 36.3304 11.9356 36.3304 12.2416V40.0761H23.2072C22.4409 36.5141 19.2683 33.8371 15.4823 33.8371C11.6963 33.8371 8.52367 36.5141 7.75743 40.0761H4.61468C4.30865 40.0761 4.06026 39.8266 4.06026 39.5215ZM15.4823 46.3127C12.2869 46.3127 10.0463 43.0901 11.2195 40.0761C13.0483 35.4131 20.0567 36.6733 20.0567 41.7394C20.0567 44.2678 17.999 46.3127 15.4823 46.3127ZM46.893 46.3127C43.6832 46.3127 41.4594 43.0701 42.6313 40.0761C43.2978 38.3739 44.9567 37.164 46.893 37.164C50.1096 37.164 52.3277 40.4193 51.1536 43.4029C50.4882 45.104 48.8292 46.3127 46.893 46.3127Z" fill="#1CB4DB"/>
<path d="M24.5413 28.4825H31.2754C32.194 28.4825 32.9388 27.7378 32.9388 26.8191C32.9388 25.9005 32.194 25.1558 31.2754 25.1558H24.5413C23.6227 25.1558 22.8779 25.9005 22.8779 26.8191C22.8779 27.7378 23.6227 28.4825 24.5413 28.4825Z" fill="#1CB4DB"/>
<path d="M31.2759 32.7249H26.7522C25.8336 32.7249 25.0889 33.4696 25.0889 34.3882C25.0889 35.3069 25.8336 36.0516 26.7522 36.0516H31.2759C32.1946 36.0516 32.9393 35.3069 32.9393 34.3882C32.9393 33.4696 32.1946 32.7249 31.2759 32.7249Z" fill="#1CB4DB"/>
</g>
<defs>
<clipPath id="clip0">
<rect width="56.75" height="56.75" fill="white" transform="translate(0.733398 0.625)"/>
</clipPath>
</defs>
</svg>
