<svg width="51" height="50" viewBox="0 0 51 50" fill="none" xmlns="http://www.w3.org/2000/svg">
<g clip-path="url(#clip0)">
<path d="M25.9834 0C21.0389 0 16.2054 1.46622 12.0942 4.21326C7.98292 6.96029 4.77861 10.8648 2.88642 15.4329C0.994231 20.0011 0.499147 25.0277 1.46378 29.8773C2.42841 34.7268 4.80943 39.1814 8.30574 42.6777C11.8021 46.174 16.2566 48.555 21.1062 49.5196C25.9557 50.4843 30.9823 49.9892 35.5505 48.097C40.1186 46.2048 44.0231 43.0005 46.7701 38.8893C49.5172 34.778 50.9834 29.9445 50.9834 25C50.9762 18.3718 48.34 12.0171 43.6532 7.33025C38.9663 2.64339 32.6116 0.00716892 25.9834 0V0ZM25.9834 45.8333C21.863 45.8333 17.8351 44.6115 14.409 42.3223C10.983 40.0331 8.31275 36.7794 6.73592 32.9726C5.15909 29.1658 4.74652 24.9769 5.55038 20.9356C6.35424 16.8943 8.33842 13.1822 11.252 10.2686C14.1656 7.35501 17.8778 5.37083 21.919 4.56697C25.9603 3.76311 30.1492 4.17568 33.956 5.75251C37.7628 7.32934 41.0165 9.9996 43.3057 13.4256C45.5949 16.8516 46.8167 20.8796 46.8167 25C46.8107 30.5235 44.6138 35.819 40.7081 39.7247C36.8024 43.6304 31.5069 45.8273 25.9834 45.8333Z" fill="#1CB4DB"/>
<path d="M25.9835 12.5C25.431 12.5 24.9011 12.7195 24.5104 13.1102C24.1197 13.5009 23.9002 14.0308 23.9002 14.5833V23.5938L16.8772 27.9938C16.4076 28.2871 16.0737 28.7551 15.9491 29.2947C15.8245 29.8342 15.9193 30.4012 16.2127 30.8708C16.5061 31.3405 16.974 31.6744 17.5136 31.799C18.0531 31.9236 18.6201 31.8288 19.0897 31.5354L27.0897 26.5354C27.392 26.346 27.6406 26.0822 27.8117 25.7692C27.9827 25.4563 28.0706 25.1046 28.0668 24.7479V14.5833C28.0668 14.0308 27.8473 13.5009 27.4566 13.1102C27.0659 12.7195 26.536 12.5 25.9835 12.5Z" fill="#1CB4DB"/>
</g>
<defs>
<clipPath id="clip0">
<rect width="50" height="50" fill="white" transform="translate(0.983398)"/>
</clipPath>
</defs>
</svg>
