<svg width="107" height="250" viewBox="0 0 107 250" fill="none" xmlns="http://www.w3.org/2000/svg">
<circle cx="103.5" cy="3.5" r="3.5" fill="#D8D8D8"/>
<circle cx="103.5" cy="111.5" r="3.5" fill="#D8D8D8"/>
<circle cx="103.5" cy="57.5" r="3.5" fill="#D8D8D8"/>
<circle cx="103.5" cy="165.5" r="3.5" fill="#D8D8D8"/>
<circle cx="103.5" cy="219.5" r="3.5" fill="#D8D8D8"/>
<circle cx="103.5" cy="30.5" r="3.5" fill="#D8D8D8"/>
<circle cx="103.5" cy="138.5" r="3.5" fill="#D8D8D8"/>
<circle cx="103.5" cy="84.5" r="3.5" fill="#D8D8D8"/>
<circle cx="103.5" cy="192.5" r="3.5" fill="#D8D8D8"/>
<circle cx="103.5" cy="246.5" r="3.5" fill="#D8D8D8"/>
<circle cx="49.5" cy="3.5" r="3.5" fill="#D8D8D8"/>
<circle cx="49.5" cy="111.5" r="3.5" fill="#D8D8D8"/>
<circle cx="49.5" cy="57.5" r="3.5" fill="#D8D8D8"/>
<circle cx="49.5" cy="165.5" r="3.5" fill="#D8D8D8"/>
<circle cx="49.5" cy="219.5" r="3.5" fill="#D8D8D8"/>
<circle cx="49.5" cy="30.5" r="3.5" fill="#D8D8D8"/>
<circle cx="49.5" cy="138.5" r="3.5" fill="#D8D8D8"/>
<circle cx="49.5" cy="84.5" r="3.5" fill="#D8D8D8"/>
<circle cx="49.5" cy="192.5" r="3.5" fill="#D8D8D8"/>
<circle cx="49.5" cy="246.5" r="3.5" fill="#D8D8D8"/>
<circle cx="76.5" cy="3.5" r="3.5" fill="#D8D8D8"/>
<circle cx="76.5" cy="111.5" r="3.5" fill="#D8D8D8"/>
<circle cx="76.5" cy="57.5" r="3.5" fill="#D8D8D8"/>
<circle cx="76.5" cy="165.5" r="3.5" fill="#D8D8D8"/>
<circle cx="76.5" cy="219.5" r="3.5" fill="#D8D8D8"/>
<circle cx="76.5" cy="30.5" r="3.5" fill="#D8D8D8"/>
<circle cx="76.5" cy="138.5" r="3.5" fill="#D8D8D8"/>
<circle cx="76.5" cy="84.5" r="3.5" fill="#D8D8D8"/>
<circle cx="76.5" cy="192.5" r="3.5" fill="#D8D8D8"/>
<circle cx="76.5" cy="246.5" r="3.5" fill="#D8D8D8"/>
<circle cx="22.5" cy="3.5" r="3.5" fill="#D8D8D8"/>
<circle cx="22.5" cy="111.5" r="3.5" fill="#D8D8D8"/>
<circle cx="22.5" cy="57.5" r="3.5" fill="#D8D8D8"/>
<circle cx="22.5" cy="165.5" r="3.5" fill="#D8D8D8"/>
<circle cx="22.5" cy="219.5" r="3.5" fill="#D8D8D8"/>
<circle cx="22.5" cy="30.5" r="3.5" fill="#D8D8D8"/>
<circle cx="22.5" cy="138.5" r="3.5" fill="#D8D8D8"/>
<circle cx="22.5" cy="84.5" r="3.5" fill="#D8D8D8"/>
<circle cx="22.5" cy="192.5" r="3.5" fill="#D8D8D8"/>
<circle cx="22.5" cy="246.5" r="3.5" fill="#D8D8D8"/>
</svg>
