<svg width="24" height="24" viewBox="0 0 24 24" fill="none" xmlns="http://www.w3.org/2000/svg">
<g clip-path="url(#clip0)">
<path d="M18.581 2.14L12.316 0.0509967C12.1109 -0.0173244 11.8891 -0.0173244 11.684 0.0509967L5.419 2.14C4.42291 2.47088 3.55642 3.10725 2.94265 3.95871C2.32887 4.81016 1.99904 5.83338 2 6.883V12C2 19.563 11.2 23.74 11.594 23.914C11.7218 23.9708 11.8601 24.0001 12 24.0001C12.1399 24.0001 12.2782 23.9708 12.406 23.914C12.8 23.74 22 19.563 22 12V6.883C22.001 5.83338 21.6711 4.81016 21.0574 3.95871C20.4436 3.10725 19.5771 2.47088 18.581 2.14ZM20 12C20 17.455 13.681 21.033 12 21.889C10.317 21.036 4 17.469 4 12V6.883C4.00006 6.25327 4.19828 5.63954 4.56657 5.12874C4.93486 4.61794 5.45455 4.23599 6.052 4.037L12 2.054L17.948 4.037C18.5455 4.23599 19.0651 4.61794 19.4334 5.12874C19.8017 5.63954 19.9999 6.25327 20 6.883V12Z" fill="#73C04E"/>
<path d="M15.2998 8.30001L11.1118 12.5L8.86779 10.16C8.77774 10.0616 8.66889 9.98211 8.54765 9.92636C8.42642 9.87062 8.29526 9.8397 8.16189 9.83543C8.02852 9.83115 7.89565 9.85362 7.7711 9.90149C7.64655 9.94937 7.53284 10.0217 7.43666 10.1142C7.34049 10.2067 7.26381 10.3175 7.21112 10.4401C7.15844 10.5627 7.13083 10.6946 7.12991 10.828C7.12899 10.9615 7.15478 11.0937 7.20577 11.217C7.25676 11.3403 7.33191 11.4522 7.42679 11.546L9.73279 13.946C9.90477 14.1318 10.1126 14.2807 10.3438 14.3838C10.575 14.487 10.8247 14.5421 11.0778 14.546H11.1108C11.3588 14.5468 11.6046 14.4984 11.8338 14.4034C12.0629 14.3085 12.271 14.169 12.4458 13.993L16.7178 9.72101C16.8111 9.62791 16.8851 9.51733 16.9357 9.39561C16.9863 9.27388 17.0124 9.14339 17.0125 9.01157C17.0127 8.87976 16.9868 8.74921 16.9365 8.62738C16.8862 8.50555 16.8124 8.39482 16.7193 8.30151C16.6262 8.20821 16.5156 8.13416 16.3939 8.08359C16.2722 8.03302 16.1417 8.00691 16.0099 8.00678C15.878 8.00664 15.7475 8.03246 15.6257 8.08277C15.5038 8.13309 15.3931 8.20691 15.2998 8.30001Z" fill="#73C04E"/>
</g>
<defs>
<clipPath id="clip0">
<rect width="24" height="24" fill="white"/>
</clipPath>
</defs>
</svg>
