<svg width="36" height="36" viewBox="0 0 36 36" fill="none" xmlns="http://www.w3.org/2000/svg">
<mask id="mask0" mask-type="alpha" maskUnits="userSpaceOnUse" x="0" y="0" width="36" height="36">
<circle cx="18" cy="18" r="18" fill="#C4C4C4"/>
</mask>
<g mask="url(#mask0)">
<path d="M18.3903 0C10.715 0 8.47032 0.00791792 8.03399 0.0441141C6.45888 0.175043 5.47876 0.423043 4.41097 0.954675C3.58807 1.3633 2.93909 1.83696 2.29858 2.50093C1.13211 3.71181 0.425148 5.20151 0.16923 6.97229C0.0448054 7.83195 0.00860917 8.00728 0.00125681 12.3983C-0.00157102 13.862 0.00125681 15.7883 0.00125681 18.3721C0.00125681 26.0412 0.0097403 28.2837 0.0465021 28.7191C0.173754 30.2518 0.41412 31.2161 0.923129 32.2709C1.8959 34.29 3.75378 35.8057 5.94252 36.3713C6.70038 36.5664 7.53742 36.6738 8.61199 36.7247C9.06727 36.7445 13.7077 36.7587 18.351 36.7587C22.9943 36.7587 27.6376 36.753 28.0816 36.7304C29.3258 36.6719 30.0483 36.5749 30.8472 36.3684C31.9325 36.0901 32.9439 35.5782 33.8109 34.8686C34.6778 34.1589 35.3794 33.2685 35.8666 32.2596C36.3657 31.2303 36.6188 30.2292 36.7333 28.7766C36.7582 28.4598 36.7687 23.4102 36.7687 18.3673C36.7687 13.3236 36.7574 8.28328 36.7325 7.96656C36.6165 6.49043 36.3634 5.49786 35.8482 4.44874C35.4255 3.58993 34.956 2.94858 34.2745 2.2928C33.0586 1.13113 31.5711 0.424174 29.7984 0.168539C28.9396 0.0443969 28.7685 0.00763514 24.374 0H18.3903Z" fill="url(#paint0_radial)"/>
<path d="M18.3903 0C10.715 0 8.47032 0.00791792 8.03399 0.0441141C6.45888 0.175043 5.47876 0.423043 4.41097 0.954675C3.58807 1.3633 2.93909 1.83696 2.29858 2.50093C1.13211 3.71181 0.425148 5.20151 0.16923 6.97229C0.0448054 7.83195 0.00860917 8.00728 0.00125681 12.3983C-0.00157102 13.862 0.00125681 15.7883 0.00125681 18.3721C0.00125681 26.0412 0.0097403 28.2837 0.0465021 28.7191C0.173754 30.2518 0.41412 31.2161 0.923129 32.2709C1.8959 34.29 3.75378 35.8057 5.94252 36.3713C6.70038 36.5664 7.53742 36.6738 8.61199 36.7247C9.06727 36.7445 13.7077 36.7587 18.351 36.7587C22.9943 36.7587 27.6376 36.753 28.0816 36.7304C29.3258 36.6719 30.0483 36.5749 30.8472 36.3684C31.9325 36.0901 32.9439 35.5782 33.8109 34.8686C34.6778 34.1589 35.3794 33.2685 35.8666 32.2596C36.3657 31.2303 36.6188 30.2292 36.7333 28.7766C36.7582 28.4598 36.7687 23.4102 36.7687 18.3673C36.7687 13.3236 36.7574 8.28328 36.7325 7.96656C36.6165 6.49043 36.3634 5.49786 35.8482 4.44874C35.4255 3.58993 34.956 2.94858 34.2745 2.2928C33.0586 1.13113 31.5711 0.424174 29.7984 0.168539C28.9396 0.0443969 28.7685 0.00763514 24.374 0H18.3903Z" fill="url(#paint1_radial)"/>
<path d="M18.3822 8.09961C15.5898 8.09961 15.2394 8.11182 14.1427 8.16173C13.0481 8.21185 12.301 8.38514 11.6472 8.6394C10.971 8.90201 10.3974 9.2533 9.82589 9.825C9.25397 10.3965 8.90268 10.9701 8.63921 11.6461C8.38431 12.3001 8.21081 13.0475 8.16154 14.1416C8.11271 15.2383 8.09985 15.589 8.09985 18.3813C8.09985 21.1736 8.11228 21.523 8.16197 22.6197C8.21231 23.7143 8.3856 24.4614 8.63964 25.1151C8.90247 25.7914 9.25376 26.365 9.82546 26.9365C10.3967 27.5084 10.9704 27.8606 11.6462 28.1232C12.3003 28.3774 13.0477 28.5507 14.1421 28.6008C15.2388 28.6508 15.589 28.663 18.3811 28.663C21.1736 28.663 21.523 28.6508 22.6197 28.6008C23.7143 28.5507 24.4623 28.3774 25.1165 28.1232C25.7925 27.8606 26.3653 27.5084 26.9365 26.9365C27.5084 26.365 27.8597 25.7914 28.1232 25.1154C28.376 24.4614 28.5495 23.7141 28.6009 22.6199C28.6501 21.5232 28.663 21.1736 28.663 18.3813C28.663 15.589 28.6501 15.2385 28.6009 14.1418C28.5495 13.0472 28.376 12.3001 28.1232 11.6464C27.8597 10.9701 27.5084 10.3965 26.9365 9.825C26.3646 9.25309 25.7927 8.90179 25.1158 8.6394C24.4604 8.38514 23.7128 8.21185 22.6182 8.16173C21.5215 8.11182 21.1724 8.09961 18.3792 8.09961H18.3822ZM17.4598 9.95245C17.7336 9.95202 18.039 9.95245 18.3822 9.95245C21.1274 9.95245 21.4528 9.96231 22.5368 10.0116C23.5393 10.0574 24.0834 10.2249 24.4458 10.3656C24.9256 10.552 25.2677 10.7748 25.6273 11.1346C25.9872 11.4945 26.21 11.8372 26.3967 12.317C26.5375 12.679 26.7052 13.2231 26.7508 14.2256C26.8001 15.3094 26.8108 15.635 26.8108 18.3789C26.8108 21.1229 26.8001 21.4484 26.7508 22.5323C26.705 23.5348 26.5375 24.0788 26.3967 24.4408C26.2104 24.9206 25.9872 25.2623 25.6273 25.6219C25.2675 25.9818 24.9258 26.2046 24.4458 26.3909C24.0838 26.5323 23.5393 26.6994 22.5368 26.7452C21.453 26.7945 21.1274 26.8052 18.3822 26.8052C15.6368 26.8052 15.3114 26.7945 14.2275 26.7452C13.2251 26.6989 12.681 26.5314 12.3183 26.3907C11.8385 26.2044 11.4958 25.9816 11.1359 25.6217C10.7761 25.2619 10.5533 24.92 10.3665 24.44C10.2258 24.078 10.0581 23.5339 10.0125 22.5314C9.96319 21.4476 9.95334 21.122 9.95334 18.3764C9.95334 15.6307 9.96319 15.3069 10.0125 14.223C10.0583 13.2205 10.2258 12.6765 10.3665 12.314C10.5529 11.8342 10.7761 11.4915 11.1359 11.1316C11.4958 10.7718 11.8385 10.549 12.3183 10.3622C12.6808 10.2208 13.2251 10.0538 14.2275 10.0077C15.176 9.96488 15.5436 9.95203 17.4598 9.94988V9.95245ZM23.8704 11.6596C23.6264 11.6596 23.3878 11.732 23.1849 11.8676C22.982 12.0032 22.8239 12.1959 22.7305 12.4214C22.6372 12.6469 22.6127 12.895 22.6604 13.1343C22.708 13.3736 22.8256 13.5935 22.9982 13.766C23.1708 13.9386 23.3906 14.056 23.63 14.1036C23.8694 14.1511 24.1175 14.1267 24.3429 14.0332C24.5683 13.9398 24.761 13.7815 24.8965 13.5786C25.032 13.3756 25.1043 13.1371 25.1042 12.893C25.1042 12.2119 24.5516 11.6592 23.8704 11.6592V11.6596ZM18.3822 13.1012C15.4662 13.1012 13.1021 15.4654 13.1021 18.3813C13.1021 21.2972 15.4662 23.6603 18.3822 23.6603C21.2981 23.6603 23.6616 21.2972 23.6616 18.3813C23.6616 15.4654 21.2979 13.1012 18.382 13.1012H18.3822ZM18.3822 14.9541C20.2749 14.9541 21.8094 16.4884 21.8094 18.3813C21.8094 20.274 20.2749 21.8085 18.3822 21.8085C16.4893 21.8085 14.9549 20.274 14.9549 18.3813C14.9549 16.4884 16.4893 14.9541 18.3822 14.9541Z" fill="white"/>
</g>
<defs>
<radialGradient id="paint0_radial" cx="0" cy="0" r="1" gradientUnits="userSpaceOnUse" gradientTransform="translate(9.76673 39.5899) rotate(-90) scale(36.4306 33.8925)">
<stop stop-color="#FFDD55"/>
<stop offset="0.1" stop-color="#FFDD55"/>
<stop offset="0.5" stop-color="#FF543E"/>
<stop offset="1" stop-color="#C837AB"/>
</radialGradient>
<radialGradient id="paint1_radial" cx="0" cy="0" r="1" gradientUnits="userSpaceOnUse" gradientTransform="translate(-6.15895 2.64803) rotate(78.6776) scale(16.2848 67.1434)">
<stop stop-color="#3771C8"/>
<stop offset="0.128" stop-color="#3771C8"/>
<stop offset="1" stop-color="#6600FF" stop-opacity="0"/>
</radialGradient>
</defs>
</svg>
