<svg width="16" height="17" viewBox="0 0 16 17" fill="none" xmlns="http://www.w3.org/2000/svg">
<g clip-path="url(#clip0)">
<path fill-rule="evenodd" clip-rule="evenodd" d="M11.61 10.088C11.4113 9.98863 10.4373 9.50997 10.256 9.4433C10.0747 9.3773 9.94267 9.34463 9.81 9.5433C9.678 9.74063 9.29867 10.1873 9.18333 10.3193C9.06733 10.452 8.952 10.468 8.754 10.3693C8.556 10.2693 7.91733 10.0606 7.16067 9.38597C6.572 8.86063 6.174 8.21197 6.05867 8.0133C5.94333 7.8153 6.046 7.70797 6.14533 7.6093C6.23467 7.52063 6.34333 7.37797 6.44267 7.26263C6.542 7.14663 6.57467 7.06397 6.64067 6.9313C6.70733 6.7993 6.674 6.68397 6.624 6.58463C6.57467 6.4853 6.17867 5.50997 6.01333 5.1133C5.85267 4.7273 5.68933 4.77997 5.568 4.7733C5.452 4.76797 5.32 4.76663 5.188 4.76663C5.056 4.76663 4.84133 4.81597 4.66 5.01463C4.478 5.21263 3.96667 5.69197 3.96667 6.6673C3.96667 7.64197 4.676 8.58397 4.77533 8.71663C4.87467 8.84863 6.172 10.85 8.15933 11.708C8.63267 11.912 9.00133 12.034 9.28867 12.1246C9.76333 12.276 10.1953 12.2546 10.5367 12.2033C10.9167 12.1466 11.7087 11.724 11.874 11.2613C12.0387 10.7986 12.0387 10.402 11.9893 10.3193C11.94 10.2366 11.808 10.1873 11.6093 10.088H11.61ZM7.99533 15.0233H7.99267C6.81229 15.0235 5.65358 14.7062 4.638 14.1046L4.398 13.962L1.90333 14.6166L2.56933 12.1846L2.41267 11.9353C1.75276 10.8849 1.40353 9.66915 1.40533 8.42863C1.40667 4.7953 4.36267 1.8393 7.998 1.8393C9.758 1.8393 11.4127 2.52597 12.6567 3.7713C13.2703 4.38235 13.7566 5.10901 14.0875 5.90923C14.4185 6.70945 14.5874 7.56735 14.5847 8.4333C14.5833 12.0666 11.6273 15.0233 7.99533 15.0233ZM13.6033 2.8253C12.8688 2.08592 11.9948 1.49966 11.0321 1.1005C10.0693 0.701342 9.03689 0.497221 7.99467 0.499966C3.62533 0.499966 0.068 4.05663 0.0666667 8.42797C0.066 9.8253 0.430667 11.1893 1.12467 12.3913L0 16.5L4.20267 15.3973C5.36525 16.0307 6.66806 16.3626 7.992 16.3626H7.99533C12.3647 16.3626 15.922 12.806 15.9233 8.43397C15.9266 7.39215 15.7232 6.36003 15.325 5.39732C14.9267 4.43461 14.3416 3.56041 13.6033 2.8253Z" fill="white"/>
</g>
<defs>
<clipPath id="clip0">
<rect width="16" height="16" fill="white" transform="translate(0 0.5)"/>
</clipPath>
</defs>
</svg>
