<svg width="16" height="16" viewBox="0 0 16 16" fill="none" xmlns="http://www.w3.org/2000/svg">
<path d="M12.6667 8.66659H4.76001L7.18001 11.5733C7.23604 11.6407 7.27824 11.7185 7.30421 11.8022C7.33018 11.8859 7.33941 11.9739 7.33136 12.0612C7.3151 12.2375 7.22949 12.4001 7.09334 12.5133C6.9572 12.6264 6.78168 12.6809 6.60539 12.6646C6.42911 12.6483 6.2665 12.5627 6.15334 12.4266L2.82001 8.42659C2.79758 8.39477 2.77753 8.36135 2.76001 8.32659C2.76001 8.29325 2.72668 8.27325 2.71334 8.23992C2.68313 8.16348 2.6673 8.08211 2.66668 7.99992C2.6673 7.91773 2.68313 7.83636 2.71334 7.75992C2.71334 7.72659 2.74668 7.70659 2.76001 7.67325C2.77753 7.63849 2.79758 7.60507 2.82001 7.57325L6.15334 3.57325C6.21602 3.498 6.29452 3.43748 6.38324 3.396C6.47196 3.35452 6.56874 3.33309 6.66668 3.33325C6.82244 3.33295 6.9734 3.3872 7.09334 3.48659C7.16085 3.54255 7.21665 3.61129 7.25755 3.68885C7.29845 3.76642 7.32365 3.85129 7.3317 3.93861C7.33975 4.02592 7.3305 4.11397 7.30447 4.19771C7.27844 4.28144 7.23615 4.35922 7.18001 4.42659L4.76001 7.33325H12.6667C12.8435 7.33325 13.0131 7.40349 13.1381 7.52852C13.2631 7.65354 13.3333 7.82311 13.3333 7.99992C13.3333 8.17673 13.2631 8.3463 13.1381 8.47132C13.0131 8.59635 12.8435 8.66659 12.6667 8.66659Z" fill="white"/>
</svg>
