<svg width="16" height="16" viewBox="0 0 16 16" fill="none" xmlns="http://www.w3.org/2000/svg">
<path d="M3.33335 8.66659H11.24L8.82002 11.5733C8.76399 11.6407 8.72179 11.7185 8.69582 11.8022C8.66985 11.8859 8.66063 11.9739 8.66867 12.0612C8.68493 12.2375 8.77054 12.4001 8.90669 12.5133C9.04283 12.6264 9.21835 12.6809 9.39464 12.6646C9.57092 12.6483 9.73353 12.5627 9.84669 12.4266L13.18 8.42659C13.2024 8.39477 13.2225 8.36135 13.24 8.32659C13.24 8.29325 13.2734 8.27325 13.2867 8.23992C13.3169 8.16348 13.3327 8.08211 13.3334 7.99992C13.3327 7.91773 13.3169 7.83636 13.2867 7.75992C13.2867 7.72659 13.2534 7.70659 13.24 7.67325C13.2225 7.63849 13.2024 7.60507 13.18 7.57325L9.84669 3.57325C9.78401 3.498 9.70551 3.43748 9.61679 3.396C9.52807 3.35452 9.43129 3.33309 9.33335 3.33325C9.17759 3.33295 9.02663 3.3872 8.90669 3.48659C8.83918 3.54255 8.78338 3.61129 8.74248 3.68885C8.70158 3.76642 8.67638 3.85129 8.66833 3.93861C8.66028 4.02592 8.66953 4.11397 8.69556 4.19771C8.72159 4.28144 8.76389 4.35922 8.82002 4.42659L11.24 7.33325H3.33335C3.15654 7.33325 2.98697 7.40349 2.86195 7.52852C2.73693 7.65354 2.66669 7.82311 2.66669 7.99992C2.66669 8.17673 2.73693 8.3463 2.86195 8.47132C2.98697 8.59635 3.15654 8.66659 3.33335 8.66659Z" fill="white"/>
</svg>
