<svg width="14" height="14" viewBox="0 0 14 14" fill="none" xmlns="http://www.w3.org/2000/svg">
<path fill-rule="evenodd" clip-rule="evenodd" d="M12.2771 10.3705C11.9026 9.89887 11.2945 9.2155 10.7739 9.15074C10.4571 9.11137 10.0931 9.37387 9.7344 9.6215C9.66439 9.6565 9.12364 9.97849 9.05802 9.99774C8.71152 10.0966 7.97215 10.1255 7.52502 9.71774C7.09452 9.32399 6.41377 8.59512 5.86427 7.9275C5.33927 7.23974 4.78889 6.41287 4.50714 5.90537C4.21314 5.37949 4.42489 4.68387 4.60689 4.37762C4.64014 4.32249 5.04264 3.90862 5.13277 3.81237L5.14589 3.82812C5.47927 3.54812 5.82839 3.26374 5.86777 2.95574C5.93252 2.44299 5.40839 1.69662 5.03389 1.22412C4.65939 0.750744 4.07927 -0.0778807 3.28914 0.0393694C2.99164 0.0831194 2.73527 0.187244 2.48239 0.336869L2.47539 0.328994C2.46122 0.339553 2.44721 0.350346 2.43339 0.361369L2.41152 0.372744L2.41414 0.376244C2.26889 0.488244 1.85414 0.797994 1.80689 0.839994C1.29414 1.29587 0.522395 2.36949 1.11914 4.30062C1.56189 5.73562 2.50602 7.42087 3.79227 9.12537L3.78527 9.13149C3.84827 9.21374 3.91302 9.28812 3.97864 9.36775C4.03989 9.44912 4.10027 9.52962 4.16327 9.61012L4.17202 9.60399C5.53702 11.2481 6.96852 12.5624 8.27489 13.3376C10.0336 14.3806 11.284 13.9107 11.8615 13.5371C11.9158 13.5012 12.3288 13.1801 12.4688 13.0742L12.4723 13.0777C12.4775 13.0725 12.481 13.0655 12.488 13.0602C12.5006 13.0507 12.5132 13.0411 12.5256 13.0314L12.5204 13.0244C12.7321 12.8196 12.9019 12.6009 13.0191 12.3252C13.3263 11.5999 12.6516 10.8439 12.2771 10.3705Z" fill="#1CB4DB"/>
</svg>
