<svg width="9" height="15" viewBox="0 0 9 15" fill="none" xmlns="http://www.w3.org/2000/svg">
<path d="M7.65372 0.619385C7.40842 0.619385 7.21218 0.692975 7.065 0.840155L1.06741 6.80094C0.895703 6.99718 0.809849 7.20569 0.809849 7.42646C0.809849 7.64723 0.895703 7.84347 1.06741 8.01518L7.065 13.976C7.23671 14.1477 7.43295 14.2335 7.65372 14.2335C7.87449 14.2335 8.07073 14.1477 8.24244 13.976C8.41415 13.8043 8.5 13.608 8.5 13.3872C8.5 13.1665 8.41415 12.9702 8.24244 12.7985L2.87037 7.42646L8.24244 2.05439C8.41415 1.88268 8.5 1.67417 8.5 1.42887C8.5 1.18357 8.42028 0.987335 8.26083 0.840155C8.10139 0.692975 7.89902 0.619385 7.65372 0.619385Z" fill="#C6CAD6"/>
</svg>
