<svg width="9" height="15" viewBox="0 0 9 15" fill="none" xmlns="http://www.w3.org/2000/svg">
<path d="M1.34628 0.619385C1.59158 0.619385 1.78782 0.692975 1.935 0.840155L7.93259 6.80094C8.1043 6.99718 8.19015 7.20569 8.19015 7.42646C8.19015 7.64723 8.1043 7.84347 7.93259 8.01518L1.935 13.976C1.76329 14.1477 1.56705 14.2335 1.34628 14.2335C1.12551 14.2335 0.929275 14.1477 0.757565 13.976C0.585855 13.8043 0.5 13.608 0.5 13.3872C0.5 13.1665 0.585855 12.9702 0.757565 12.7985L6.12963 7.42646L0.757565 2.05439C0.585855 1.88268 0.5 1.67417 0.5 1.42887C0.5 1.18357 0.579722 0.987335 0.739167 0.840155C0.898612 0.692975 1.10098 0.619385 1.34628 0.619385Z" fill="#C6CAD6"/>
</svg>
