<svg width="16" height="16" viewBox="0 0 16 16" fill="none" xmlns="http://www.w3.org/2000/svg">
<path d="M8.25 3.59375C8.05109 3.59375 7.86033 3.67277 7.71967 3.81342C7.57902 3.95407 7.5 4.14484 7.5 4.34375V7.34375H6C5.80109 7.34375 5.61033 7.42277 5.46967 7.56342C5.32902 7.70407 5.25 7.89484 5.25 8.09375C5.25 8.29266 5.32902 8.48343 5.46967 8.62408C5.61033 8.76473 5.80109 8.84375 6 8.84375H8.25C8.44892 8.84375 8.63968 8.76473 8.78033 8.62408C8.92099 8.48343 9 8.29266 9 8.09375V4.34375C9 4.14484 8.92099 3.95407 8.78033 3.81342C8.63968 3.67277 8.44892 3.59375 8.25 3.59375ZM8.25 0.59375C6.76664 0.59375 5.3166 1.03362 4.08323 1.85773C2.84986 2.68184 1.88856 3.85318 1.32091 5.22362C0.75325 6.59407 0.604725 8.10207 0.894114 9.55693C1.1835 11.0118 1.89781 12.3482 2.9467 13.3971C3.9956 14.4459 5.33197 15.1603 6.78683 15.4496C8.24168 15.739 9.74968 15.5905 11.1201 15.0228C12.4906 14.4552 13.6619 13.4939 14.486 12.2605C15.3101 11.0272 15.75 9.57711 15.75 8.09375C15.7478 6.1053 14.9569 4.19891 13.5509 2.79286C12.1448 1.38681 10.2385 0.595934 8.25 0.59375ZM8.25 14.0938C7.06332 14.0938 5.90328 13.7419 4.91658 13.0826C3.92989 12.4233 3.16085 11.4862 2.70673 10.3899C2.2526 9.29349 2.13378 8.08709 2.36529 6.92321C2.5968 5.75932 3.16825 4.69022 4.00736 3.85111C4.84648 3.01199 5.91558 2.44055 7.07946 2.20904C8.24335 1.97753 9.44975 2.09635 10.5461 2.55047C11.6425 3.0046 12.5795 3.77363 13.2388 4.76033C13.8981 5.74702 14.25 6.90706 14.25 8.09375C14.248 9.68444 13.6152 11.2094 12.4905 12.3342C11.3657 13.459 9.84069 14.0918 8.25 14.0938Z" fill="#C6CAD6"/>
</svg>
