<svg width="25" height="24" viewBox="0 0 25 24" fill="none" xmlns="http://www.w3.org/2000/svg">
<path d="M12.5 1C12.2348 1 11.9804 1.10536 11.7929 1.29289C11.6054 1.48043 11.5 1.73478 11.5 2V17C11.5 17.2652 11.6054 17.5196 11.7929 17.7071C11.9804 17.8946 12.2348 18 12.5 18C12.7652 18 13.0196 17.8946 13.2071 17.7071C13.3946 17.5196 13.5 17.2652 13.5 17V2C13.5 1.73478 13.3946 1.48043 13.2071 1.29289C13.0196 1.10536 12.7652 1 12.5 1ZM19.5 9C19.2348 9 18.9804 9.10536 18.7929 9.29289C18.6054 9.48043 18.5 9.73478 18.5 10V17C18.5 17.2652 18.6054 17.5196 18.7929 17.7071C18.9804 17.8946 19.2348 18 19.5 18C19.7652 18 20.0196 17.8946 20.2071 17.7071C20.3946 17.5196 20.5 17.2652 20.5 17V10C20.5 9.73478 20.3946 9.48043 20.2071 9.29289C20.0196 9.10536 19.7652 9 19.5 9ZM5.5 5C5.23478 5 4.98043 5.10536 4.79289 5.29289C4.60536 5.48043 4.5 5.73478 4.5 6V17C4.5 17.2652 4.60536 17.5196 4.79289 17.7071C4.98043 17.8946 5.23478 18 5.5 18C5.76522 18 6.01957 17.8946 6.20711 17.7071C6.39464 17.5196 6.5 17.2652 6.5 17V6C6.5 5.73478 6.39464 5.48043 6.20711 5.29289C6.01957 5.10536 5.76522 5 5.5 5Z" fill="#C6CAD6"/>
</svg>
