<svg width="16" height="16" viewBox="0 0 16 16" fill="none" xmlns="http://www.w3.org/2000/svg">
<path d="M3.33332 8.66659H11.24L8.81999 11.5733C8.76396 11.6407 8.72176 11.7185 8.69579 11.8022C8.66982 11.8859 8.66059 11.9739 8.66864 12.0612C8.6849 12.2375 8.77051 12.4001 8.90666 12.5133C9.0428 12.6264 9.21832 12.6809 9.39461 12.6646C9.57089 12.6483 9.7335 12.5627 9.84666 12.4266L13.18 8.42659C13.2024 8.39477 13.2225 8.36135 13.24 8.32659C13.24 8.29325 13.2733 8.27325 13.2867 8.23992C13.3169 8.16348 13.3327 8.08211 13.3333 7.99992C13.3327 7.91773 13.3169 7.83636 13.2867 7.75992C13.2867 7.72659 13.2533 7.70659 13.24 7.67325C13.2225 7.63849 13.2024 7.60507 13.18 7.57325L9.84666 3.57325C9.78398 3.498 9.70548 3.43748 9.61676 3.396C9.52804 3.35452 9.43126 3.33309 9.33332 3.33325C9.17756 3.33295 9.0266 3.3872 8.90666 3.48659C8.83915 3.54255 8.78335 3.61129 8.74245 3.68885C8.70155 3.76642 8.67635 3.85129 8.6683 3.93861C8.66025 4.02592 8.6695 4.11397 8.69553 4.19771C8.72156 4.28144 8.76385 4.35922 8.81999 4.42659L11.24 7.33325H3.33332C3.15651 7.33325 2.98694 7.40349 2.86192 7.52852C2.73689 7.65354 2.66666 7.82311 2.66666 7.99992C2.66666 8.17673 2.73689 8.3463 2.86192 8.47132C2.98694 8.59635 3.15651 8.66659 3.33332 8.66659Z" fill="#1CB4DB"/>
</svg>
