<svg width="25" height="26" viewBox="0 0 25 26" fill="none" xmlns="http://www.w3.org/2000/svg">
<path d="M22.4272 17.4586L18.5211 21.3642C18.5202 21.3652 18.5191 21.3658 18.5183 21.3668C18.5009 21.3839 18.4828 21.4003 18.464 21.4158C18.4549 21.4233 18.4453 21.4298 18.436 21.4367C18.4249 21.445 18.4141 21.4536 18.4024 21.4613C18.3914 21.4688 18.38 21.4751 18.3687 21.4819C18.3581 21.4882 18.3478 21.4948 18.337 21.5007C18.3254 21.5069 18.3136 21.512 18.3019 21.5176C18.2904 21.523 18.2793 21.5286 18.2677 21.5334C18.2563 21.5382 18.2446 21.542 18.233 21.5461C18.2206 21.5506 18.2082 21.5554 18.1955 21.5593C18.1839 21.5627 18.1722 21.5653 18.1605 21.5683C18.1475 21.5715 18.1346 21.5751 18.1214 21.5779C18.1077 21.5805 18.0941 21.582 18.0806 21.584C18.0688 21.5857 18.0575 21.5879 18.0458 21.589C17.9945 21.594 17.9429 21.594 17.8916 21.589C17.8801 21.5879 17.8688 21.5858 17.8574 21.5841C17.8436 21.5821 17.8298 21.5805 17.8161 21.5778C17.803 21.5752 17.7903 21.5716 17.7774 21.5684C17.7655 21.5654 17.7536 21.5628 17.742 21.5592C17.7293 21.5554 17.7173 21.5507 17.7049 21.5463C17.6932 21.5421 17.6814 21.5382 17.6697 21.5334C17.6584 21.5287 17.6475 21.5232 17.6364 21.5179C17.6244 21.5122 17.6122 21.507 17.6004 21.5006C17.5899 21.495 17.5801 21.4886 17.5699 21.4826C17.5582 21.4756 17.5463 21.469 17.5348 21.4612C17.5238 21.4539 17.5136 21.4457 17.5029 21.4378C17.4932 21.4305 17.483 21.4237 17.4734 21.4157C17.4564 21.4016 17.44 21.3868 17.4242 21.3713C17.4217 21.3689 17.4188 21.3667 17.4164 21.3642L13.5102 17.4579C13.3636 17.3114 13.2813 17.1127 13.2813 16.9055C13.2813 16.6983 13.3636 16.4996 13.5101 16.353C13.6566 16.2065 13.8553 16.1242 14.0625 16.1242C14.2697 16.1242 14.4684 16.2064 14.6149 16.3529L17.1875 18.9256V11.4367C17.1875 11.2295 17.2698 11.0308 17.4163 10.8843C17.5628 10.7378 17.7615 10.6555 17.9688 10.6555C18.176 10.6555 18.3747 10.7378 18.5212 10.8843C18.6677 11.0308 18.75 11.2295 18.75 11.4367V18.9258L21.3226 16.3536C21.395 16.2804 21.4811 16.2221 21.5761 16.1823C21.6711 16.1425 21.773 16.1218 21.876 16.1215C21.979 16.1212 22.081 16.1413 22.1762 16.1806C22.2714 16.2199 22.3579 16.2776 22.4308 16.3504C22.5036 16.4233 22.5613 16.5098 22.6005 16.605C22.6398 16.7002 22.6598 16.8023 22.6595 16.9052C22.6592 17.0082 22.6385 17.1101 22.5986 17.2051C22.5588 17.3001 22.5005 17.3862 22.4272 17.4586ZM11.7188 12.218H4.6875C4.4803 12.218 4.28159 12.3003 4.13507 12.4468C3.98856 12.5933 3.90625 12.792 3.90625 12.9992C3.90625 13.2064 3.98856 13.4052 4.13507 13.5517C4.28159 13.6982 4.4803 13.7805 4.6875 13.7805H11.7187C11.9259 13.7805 12.1246 13.6982 12.2711 13.5517C12.4176 13.4052 12.4999 13.2064 12.4999 12.9992C12.4999 12.792 12.4176 12.5933 12.2711 12.4468C12.1246 12.3003 11.9259 12.218 11.7187 12.218H11.7188ZM4.6875 7.53049H17.9687C18.1759 7.53049 18.3746 7.44818 18.5211 7.30166C18.6676 7.15515 18.7499 6.95644 18.7499 6.74924C18.7499 6.54204 18.6676 6.34332 18.5211 6.19681C18.3746 6.0503 18.1759 5.96799 17.9687 5.96799H4.6875C4.4803 5.96799 4.28159 6.0503 4.13507 6.19681C3.98856 6.34332 3.90625 6.54204 3.90625 6.74924C3.90625 6.95644 3.98856 7.15515 4.13507 7.30166C4.28159 7.44818 4.4803 7.53049 4.6875 7.53049ZM10.1562 18.468H4.6875C4.4803 18.468 4.28159 18.5503 4.13507 18.6968C3.98856 18.8433 3.90625 19.042 3.90625 19.2492C3.90625 19.4564 3.98856 19.6552 4.13507 19.8017C4.28159 19.9482 4.4803 20.0305 4.6875 20.0305H10.1562C10.3635 20.0305 10.5622 19.9482 10.7087 19.8017C10.8552 19.6552 10.9375 19.4564 10.9375 19.2492C10.9375 19.042 10.8552 18.8433 10.7087 18.6968C10.5622 18.5503 10.3635 18.468 10.1562 18.468Z" fill="#73C04E"/>
</svg>
