<svg width="17" height="18" viewBox="0 0 17 18" fill="none" xmlns="http://www.w3.org/2000/svg">
<path d="M1.5 2.55556C1.5 2.34191 1.58487 2.13701 1.73594 1.98594C1.88701 1.83487 2.09191 1.75 2.30556 1.75H15.1944C15.4081 1.75 15.613 1.83487 15.7641 1.98594C15.9151 2.13701 16 2.34191 16 2.55556V4.63872C16 4.85235 15.9151 5.05721 15.764 5.20825L10.5971 10.3751C10.4461 10.5261 10.3612 10.731 10.3611 10.9446V13.0278L7.13889 16.25V10.9446C7.13884 10.731 7.05394 10.5261 6.90286 10.3751L1.73603 5.20825C1.58495 5.05721 1.50005 4.85235 1.5 4.63872V2.55556Z" stroke="#C6CAD6" stroke-width="1.8125" stroke-linecap="round" stroke-linejoin="round"/>
</svg>
