<svg width="16" height="14" viewBox="0 0 16 14" fill="none" xmlns="http://www.w3.org/2000/svg">
<path d="M14.0312 0.90625H2.21875C1.69678 0.906808 1.19634 1.11441 0.82725 1.4835C0.458159 1.85259 0.250558 2.35303 0.25 2.875V11.3125C0.250558 11.8345 0.458159 12.3349 0.82725 12.704C1.19634 13.0731 1.69678 13.2807 2.21875 13.2812H14.0312C14.5532 13.2807 15.0537 13.0731 15.4228 12.704C15.7918 12.3349 15.9994 11.8345 16 11.3125V2.875C15.9994 2.35303 15.7918 1.85259 15.4228 1.4835C15.0537 1.11441 14.5532 0.906808 14.0312 0.90625ZM13.5327 4.16277L8.47023 8.10027C8.37152 8.17702 8.25004 8.21868 8.125 8.21868C7.99996 8.21868 7.87848 8.17702 7.77977 8.10027L2.71727 4.16277C2.65779 4.11786 2.60783 4.06157 2.57029 3.99717C2.53275 3.93278 2.50839 3.86157 2.49861 3.78768C2.48883 3.71379 2.49384 3.63869 2.51334 3.56675C2.53283 3.49481 2.56643 3.42746 2.61218 3.36862C2.65793 3.30978 2.71492 3.26062 2.77984 3.22399C2.84475 3.18737 2.9163 3.164 2.99032 3.15527C3.06434 3.14653 3.13936 3.15259 3.21102 3.1731C3.28267 3.19361 3.34954 3.22815 3.40773 3.27473L8.125 6.94363L12.8423 3.27473C12.9602 3.18565 13.1085 3.14658 13.255 3.16597C13.4016 3.18536 13.5346 3.26165 13.6253 3.37834C13.716 3.49503 13.7572 3.64275 13.7399 3.78954C13.7225 3.93634 13.6481 4.07041 13.5327 4.16277Z" fill="#C6CAD6"/>
</svg>
