<svg width="15" height="19" viewBox="0 0 15 19" fill="none" xmlns="http://www.w3.org/2000/svg">
<path d="M7.5 0.09375C3.74883 0.09375 0.75 3.09258 0.75 6.84375C0.75 8.14102 1.13672 9.14297 1.8082 10.159L6.78984 17.7176C6.94102 17.9461 7.20117 18.0938 7.5 18.0938C7.79883 18.0938 8.0625 17.9426 8.21016 17.7176L13.1918 10.159C13.8633 9.14297 14.25 8.14102 14.25 6.84375C14.25 3.09258 11.2512 0.09375 7.5 0.09375ZM7.5 10.5914C5.4293 10.5914 3.74883 8.91094 3.74883 6.83672C3.74883 4.7625 5.4293 3.08203 7.5 3.08203C9.5707 3.08203 11.2512 4.7625 11.2512 6.83672C11.2512 8.91094 9.5707 10.5914 7.5 10.5914Z" fill="#C6CAD6"/>
</svg>
