<svg width="13" height="15" viewBox="0 0 13 15" fill="none" xmlns="http://www.w3.org/2000/svg">
<path fill-rule="evenodd" clip-rule="evenodd" d="M11.4019 10.4642C11.0274 9.99262 10.4193 9.30925 9.89865 9.24449C9.5819 9.20512 9.2179 9.46762 8.85915 9.71525C8.78915 9.75025 8.2484 10.0722 8.18278 10.0915C7.83628 10.1904 7.0969 10.2192 6.64978 9.81149C6.21928 9.41774 5.53853 8.68887 4.98903 8.02125C4.46403 7.33349 3.91365 6.50662 3.6319 5.99912C3.3379 5.47324 3.54965 4.77762 3.73165 4.47137C3.7649 4.41624 4.1674 4.00237 4.25753 3.90612L4.27065 3.92187C4.60403 3.64187 4.95315 3.35749 4.99253 3.04949C5.05728 2.53674 4.53315 1.79037 4.15865 1.31787C3.78415 0.844494 3.20403 0.0158693 2.4139 0.133119C2.1164 0.176869 1.86003 0.280994 1.60715 0.430619L1.60015 0.422744C1.58597 0.433303 1.57197 0.444096 1.55815 0.455119L1.53628 0.466494L1.5389 0.469994C1.39365 0.581994 0.978901 0.891744 0.931651 0.933744C0.418901 1.38962 -0.352849 2.46324 0.243901 4.39437C0.686651 5.82937 1.63078 7.51462 2.91703 9.21912L2.91003 9.22524C2.97303 9.30749 3.03778 9.38187 3.1034 9.4615C3.16465 9.54287 3.22503 9.62337 3.28803 9.70387L3.29678 9.69774C4.66178 11.3419 6.09328 12.6561 7.39965 13.4314C9.1584 14.4744 10.4088 14.0045 10.9863 13.6309C11.0405 13.595 11.4535 13.2739 11.5935 13.168L11.597 13.1715C11.6023 13.1662 11.6058 13.1592 11.6128 13.154C11.6254 13.1445 11.6379 13.1348 11.6504 13.1251L11.6452 13.1181C11.8569 12.9134 12.0267 12.6946 12.1439 12.419C12.451 11.6936 11.7764 10.9376 11.4019 10.4642Z" fill="#C6CAD6"/>
</svg>
