<svg width="88" height="80" viewBox="0 0 88 80" fill="none" xmlns="http://www.w3.org/2000/svg">
<path d="M3.1637 20.5638C3.01781 20.0312 2.46773 19.7176 1.93506 19.8635C1.40239 20.0094 1.08885 20.5595 1.23474 21.0922L3.1637 20.5638ZM85.6693 54.129C85.9428 53.6492 85.7755 53.0385 85.2957 52.765L77.4766 48.3084C76.9968 48.0349 76.3861 48.2021 76.1126 48.682C75.8392 49.1618 76.0064 49.7725 76.4863 50.0459L83.4366 54.0074L79.4751 60.9577C79.2016 61.4375 79.3689 62.0482 79.8487 62.3217C80.3285 62.5952 80.9392 62.4279 81.2127 61.9481L85.6693 54.129ZM1.23474 21.0922C4.83714 34.245 15.9964 45.3202 31.085 51.7477C46.1899 58.1822 65.3217 60.0061 85.0647 54.5983L84.5363 52.6693C65.2178 57.9609 46.549 56.1612 31.8688 49.9077C17.1721 43.6471 6.56149 32.9697 3.1637 20.5638L1.23474 21.0922Z" fill="#1CB4DB"/>
</svg>
