<svg width="130" height="60" viewBox="0 0 130 60" fill="none" xmlns="http://www.w3.org/2000/svg">
<path d="M50.0003 40.0001C53.6837 40.0001 56.667 37.0167 56.667 33.3334C56.667 29.6501 53.6837 26.6667 50.0003 26.6667C46.317 26.6667 43.3337 29.6501 43.3337 33.3334C43.3337 37.0167 46.317 40.0001 50.0003 40.0001ZM50.0003 43.3334C45.5503 43.3334 36.667 45.5667 36.667 50.0001V51.6667C36.667 52.5834 37.417 53.3334 38.3337 53.3334H61.667C62.5837 53.3334 63.3337 52.5834 63.3337 51.6667V50.0001C63.3337 45.5667 54.4503 43.3334 50.0003 43.3334Z" fill="#1CB4DB"/>
<path d="M20.0003 40.0001C23.6837 40.0001 26.667 37.0167 26.667 33.3334C26.667 29.6501 23.6837 26.6667 20.0003 26.6667C16.317 26.6667 13.3337 29.6501 13.3337 33.3334C13.3337 37.0167 16.317 40.0001 20.0003 40.0001ZM20.0003 43.3334C15.5503 43.3334 6.66699 45.5667 6.66699 50.0001V51.6667C6.66699 52.5834 7.41699 53.3334 8.33366 53.3334H31.667C32.5837 53.3334 33.3337 52.5834 33.3337 51.6667V50.0001C33.3337 45.5667 24.4503 43.3334 20.0003 43.3334Z" fill="#1CB4DB"/>
<path d="M80.0003 40.0001C83.6837 40.0001 86.667 37.0167 86.667 33.3334C86.667 29.6501 83.6837 26.6667 80.0003 26.6667C76.317 26.6667 73.3337 29.6501 73.3337 33.3334C73.3337 37.0167 76.317 40.0001 80.0003 40.0001ZM80.0003 43.3334C75.5503 43.3334 66.667 45.5667 66.667 50.0001V51.6667C66.667 52.5834 67.417 53.3334 68.3337 53.3334H91.667C92.5837 53.3334 93.3337 52.5834 93.3337 51.6667V50.0001C93.3337 45.5667 84.4503 43.3334 80.0003 43.3334Z" fill="#1CB4DB"/>
<path d="M110 40.0001C113.684 40.0001 116.667 37.0167 116.667 33.3334C116.667 29.6501 113.684 26.6667 110 26.6667C106.317 26.6667 103.334 29.6501 103.334 33.3334C103.334 37.0167 106.317 40.0001 110 40.0001ZM110 43.3334C105.55 43.3334 96.667 45.5667 96.667 50.0001V51.6667C96.667 52.5834 97.417 53.3334 98.3337 53.3334H121.667C122.584 53.3334 123.334 52.5834 123.334 51.6667V50.0001C123.334 45.5667 114.45 43.3334 110 43.3334Z" fill="#1CB4DB"/>
<path d="M12.0002 10.0002C13.8418 10.0002 15.3335 8.5085 15.3335 6.66683C15.3335 4.82516 13.8418 3.3335 12.0002 3.3335C10.1585 3.3335 8.66683 4.82516 8.66683 6.66683C8.66683 8.5085 10.1585 10.0002 12.0002 10.0002ZM12.0002 11.6668C9.77516 11.6668 5.3335 12.7835 5.3335 15.0002V15.8335C5.3335 16.2918 5.7085 16.6668 6.16683 16.6668H17.8335C18.2918 16.6668 18.6668 16.2918 18.6668 15.8335V15.0002C18.6668 12.7835 14.2252 11.6668 12.0002 11.6668Z" fill="#1CB4DB"/>
<path d="M54.0002 10.0002C55.8418 10.0002 57.3335 8.5085 57.3335 6.66683C57.3335 4.82516 55.8418 3.3335 54.0002 3.3335C52.1585 3.3335 50.6668 4.82516 50.6668 6.66683C50.6668 8.5085 52.1585 10.0002 54.0002 10.0002ZM54.0002 11.6668C51.7752 11.6668 47.3335 12.7835 47.3335 15.0002V15.8335C47.3335 16.2918 47.7085 16.6668 48.1668 16.6668H59.8335C60.2918 16.6668 60.6668 16.2918 60.6668 15.8335V15.0002C60.6668 12.7835 56.2252 11.6668 54.0002 11.6668Z" fill="#1CB4DB"/>
<path d="M33.0002 10.0002C34.8418 10.0002 36.3335 8.5085 36.3335 6.66683C36.3335 4.82516 34.8418 3.3335 33.0002 3.3335C31.1585 3.3335 29.6668 4.82516 29.6668 6.66683C29.6668 8.5085 31.1585 10.0002 33.0002 10.0002ZM33.0002 11.6668C30.7752 11.6668 26.3335 12.7835 26.3335 15.0002V15.8335C26.3335 16.2918 26.7085 16.6668 27.1668 16.6668H38.8335C39.2918 16.6668 39.6668 16.2918 39.6668 15.8335V15.0002C39.6668 12.7835 35.2252 11.6668 33.0002 11.6668Z" fill="#1CB4DB"/>
<path d="M75.0002 10.0002C76.8418 10.0002 78.3335 8.5085 78.3335 6.66683C78.3335 4.82516 76.8418 3.3335 75.0002 3.3335C73.1585 3.3335 71.6668 4.82516 71.6668 6.66683C71.6668 8.5085 73.1585 10.0002 75.0002 10.0002ZM75.0002 11.6668C72.7752 11.6668 68.3335 12.7835 68.3335 15.0002V15.8335C68.3335 16.2918 68.7085 16.6668 69.1668 16.6668H80.8335C81.2918 16.6668 81.6668 16.2918 81.6668 15.8335V15.0002C81.6668 12.7835 77.2252 11.6668 75.0002 11.6668Z" fill="#1CB4DB"/>
<path d="M117 10.0002C118.842 10.0002 120.333 8.5085 120.333 6.66683C120.333 4.82516 118.842 3.3335 117 3.3335C115.158 3.3335 113.667 4.82516 113.667 6.66683C113.667 8.5085 115.158 10.0002 117 10.0002ZM117 11.6668C114.775 11.6668 110.333 12.7835 110.333 15.0002V15.8335C110.333 16.2918 110.708 16.6668 111.167 16.6668H122.833C123.292 16.6668 123.667 16.2918 123.667 15.8335V15.0002C123.667 12.7835 119.225 11.6668 117 11.6668Z" fill="#1CB4DB"/>
<path d="M96.0002 10.0002C97.8418 10.0002 99.3335 8.5085 99.3335 6.66683C99.3335 4.82516 97.8418 3.3335 96.0002 3.3335C94.1585 3.3335 92.6668 4.82516 92.6668 6.66683C92.6668 8.5085 94.1585 10.0002 96.0002 10.0002ZM96.0002 11.6668C93.7752 11.6668 89.3335 12.7835 89.3335 15.0002V15.8335C89.3335 16.2918 89.7085 16.6668 90.1668 16.6668H101.833C102.292 16.6668 102.667 16.2918 102.667 15.8335V15.0002C102.667 12.7835 98.2252 11.6668 96.0002 11.6668Z" fill="#1CB4DB"/>
</svg>
