<svg width="60" height="40" viewBox="0 0 60 40" fill="none" xmlns="http://www.w3.org/2000/svg">
<path d="M30.0001 20.0001C33.6834 20.0001 36.6667 17.0167 36.6667 13.3334C36.6667 9.65008 33.6834 6.66675 30.0001 6.66675C26.3167 6.66675 23.3334 9.65008 23.3334 13.3334C23.3334 17.0167 26.3167 20.0001 30.0001 20.0001ZM30.0001 23.3334C25.5501 23.3334 16.6667 25.5667 16.6667 30.0001V31.6667C16.6667 32.5834 17.4167 33.3334 18.3334 33.3334H41.6667C42.5834 33.3334 43.3334 32.5834 43.3334 31.6667V30.0001C43.3334 25.5667 34.4501 23.3334 30.0001 23.3334Z" fill="#1CB4DB"/>
<path d="M10.0002 20.0002C11.8418 20.0002 13.3335 18.5085 13.3335 16.6668C13.3335 14.8252 11.8418 13.3335 10.0002 13.3335C8.1585 13.3335 6.66683 14.8252 6.66683 16.6668C6.66683 18.5085 8.1585 20.0002 10.0002 20.0002ZM10.0002 21.6668C7.77516 21.6668 3.3335 22.7835 3.3335 25.0002V25.8335C3.3335 26.2918 3.7085 26.6668 4.16683 26.6668H15.8335C16.2918 26.6668 16.6668 26.2918 16.6668 25.8335V25.0002C16.6668 22.7835 12.2252 21.6668 10.0002 21.6668Z" fill="#1CB4DB"/>
<path d="M50.0002 20.0002C51.8418 20.0002 53.3335 18.5085 53.3335 16.6668C53.3335 14.8252 51.8418 13.3335 50.0002 13.3335C48.1585 13.3335 46.6668 14.8252 46.6668 16.6668C46.6668 18.5085 48.1585 20.0002 50.0002 20.0002ZM50.0002 21.6668C47.7752 21.6668 43.3335 22.7835 43.3335 25.0002V25.8335C43.3335 26.2918 43.7085 26.6668 44.1668 26.6668H55.8335C56.2918 26.6668 56.6668 26.2918 56.6668 25.8335V25.0002C56.6668 22.7835 52.2252 21.6668 50.0002 21.6668Z" fill="#1CB4DB"/>
</svg>
