<svg width="90" height="40" viewBox="0 0 90 40" fill="none" xmlns="http://www.w3.org/2000/svg">
<path d="M30.0003 20.0001C33.6837 20.0001 36.667 17.0167 36.667 13.3334C36.667 9.65008 33.6837 6.66675 30.0003 6.66675C26.317 6.66675 23.3337 9.65008 23.3337 13.3334C23.3337 17.0167 26.317 20.0001 30.0003 20.0001ZM30.0003 23.3334C25.5503 23.3334 16.667 25.5667 16.667 30.0001V31.6667C16.667 32.5834 17.417 33.3334 18.3337 33.3334H41.667C42.5837 33.3334 43.3337 32.5834 43.3337 31.6667V30.0001C43.3337 25.5667 34.4503 23.3334 30.0003 23.3334Z" fill="#1CB4DB"/>
<path d="M60.0003 20.0001C63.6837 20.0001 66.667 17.0167 66.667 13.3334C66.667 9.65008 63.6837 6.66675 60.0003 6.66675C56.317 6.66675 53.3337 9.65008 53.3337 13.3334C53.3337 17.0167 56.317 20.0001 60.0003 20.0001ZM60.0003 23.3334C55.5503 23.3334 46.667 25.5667 46.667 30.0001V31.6667C46.667 32.5834 47.417 33.3334 48.3337 33.3334H71.667C72.5837 33.3334 73.3337 32.5834 73.3337 31.6667V30.0001C73.3337 25.5667 64.4503 23.3334 60.0003 23.3334Z" fill="#1CB4DB"/>
<path d="M10.0002 20.0002C11.8418 20.0002 13.3335 18.5085 13.3335 16.6668C13.3335 14.8252 11.8418 13.3335 10.0002 13.3335C8.1585 13.3335 6.66683 14.8252 6.66683 16.6668C6.66683 18.5085 8.1585 20.0002 10.0002 20.0002ZM10.0002 21.6668C7.77516 21.6668 3.3335 22.7835 3.3335 25.0002V25.8335C3.3335 26.2918 3.7085 26.6668 4.16683 26.6668H15.8335C16.2918 26.6668 16.6668 26.2918 16.6668 25.8335V25.0002C16.6668 22.7835 12.2252 21.6668 10.0002 21.6668Z" fill="#1CB4DB"/>
<path d="M80.0002 20.0002C81.8418 20.0002 83.3335 18.5085 83.3335 16.6668C83.3335 14.8252 81.8418 13.3335 80.0002 13.3335C78.1585 13.3335 76.6668 14.8252 76.6668 16.6668C76.6668 18.5085 78.1585 20.0002 80.0002 20.0002ZM80.0002 21.6668C77.7752 21.6668 73.3335 22.7835 73.3335 25.0002V25.8335C73.3335 26.2918 73.7085 26.6668 74.1668 26.6668H85.8335C86.2918 26.6668 86.6668 26.2918 86.6668 25.8335V25.0002C86.6668 22.7835 82.2252 21.6668 80.0002 21.6668Z" fill="#1CB4DB"/>
</svg>
