<svg width="130" height="60" viewBox="0 0 130 60" fill="none" xmlns="http://www.w3.org/2000/svg">
<path d="M50.0003 40.0001C53.6837 40.0001 56.667 37.0167 56.667 33.3334C56.667 29.6501 53.6837 26.6667 50.0003 26.6667C46.317 26.6667 43.3337 29.6501 43.3337 33.3334C43.3337 37.0167 46.317 40.0001 50.0003 40.0001ZM50.0003 43.3334C45.5503 43.3334 36.667 45.5667 36.667 50.0001V51.6667C36.667 52.5834 37.417 53.3334 38.3337 53.3334H61.667C62.5837 53.3334 63.3337 52.5834 63.3337 51.6667V50.0001C63.3337 45.5667 54.4503 43.3334 50.0003 43.3334Z" fill="#1CB4DB"/>
<path d="M20.0003 40.0001C23.6837 40.0001 26.667 37.0167 26.667 33.3334C26.667 29.6501 23.6837 26.6667 20.0003 26.6667C16.317 26.6667 13.3337 29.6501 13.3337 33.3334C13.3337 37.0167 16.317 40.0001 20.0003 40.0001ZM20.0003 43.3334C15.5503 43.3334 6.66699 45.5667 6.66699 50.0001V51.6667C6.66699 52.5834 7.41699 53.3334 8.33366 53.3334H31.667C32.5837 53.3334 33.3337 52.5834 33.3337 51.6667V50.0001C33.3337 45.5667 24.4503 43.3334 20.0003 43.3334Z" fill="#1CB4DB"/>
<path d="M80.0003 40.0001C83.6837 40.0001 86.667 37.0167 86.667 33.3334C86.667 29.6501 83.6837 26.6667 80.0003 26.6667C76.317 26.6667 73.3337 29.6501 73.3337 33.3334C73.3337 37.0167 76.317 40.0001 80.0003 40.0001ZM80.0003 43.3334C75.5503 43.3334 66.667 45.5667 66.667 50.0001V51.6667C66.667 52.5834 67.417 53.3334 68.3337 53.3334H91.667C92.5837 53.3334 93.3337 52.5834 93.3337 51.6667V50.0001C93.3337 45.5667 84.4503 43.3334 80.0003 43.3334Z" fill="#1CB4DB"/>
<path d="M110 40.0001C113.684 40.0001 116.667 37.0167 116.667 33.3334C116.667 29.6501 113.684 26.6667 110 26.6667C106.317 26.6667 103.334 29.6501 103.334 33.3334C103.334 37.0167 106.317 40.0001 110 40.0001ZM110 43.3334C105.55 43.3334 96.667 45.5667 96.667 50.0001V51.6667C96.667 52.5834 97.417 53.3334 98.3337 53.3334H121.667C122.584 53.3334 123.334 52.5834 123.334 51.6667V50.0001C123.334 45.5667 114.45 43.3334 110 43.3334Z" fill="#1CB4DB"/>
<path d="M55.0002 10.0002C56.8418 10.0002 58.3335 8.5085 58.3335 6.66683C58.3335 4.82516 56.8418 3.3335 55.0002 3.3335C53.1585 3.3335 51.6668 4.82516 51.6668 6.66683C51.6668 8.5085 53.1585 10.0002 55.0002 10.0002ZM55.0002 11.6668C52.7752 11.6668 48.3335 12.7835 48.3335 15.0002V15.8335C48.3335 16.2918 48.7085 16.6668 49.1668 16.6668H60.8335C61.2918 16.6668 61.6668 16.2918 61.6668 15.8335V15.0002C61.6668 12.7835 57.2252 11.6668 55.0002 11.6668Z" fill="#1CB4DB"/>
<path d="M76.0002 10.0002C77.8418 10.0002 79.3335 8.5085 79.3335 6.66683C79.3335 4.82516 77.8418 3.3335 76.0002 3.3335C74.1585 3.3335 72.6668 4.82516 72.6668 6.66683C72.6668 8.5085 74.1585 10.0002 76.0002 10.0002ZM76.0002 11.6668C73.7752 11.6668 69.3335 12.7835 69.3335 15.0002V15.8335C69.3335 16.2918 69.7085 16.6668 70.1668 16.6668H81.8335C82.2918 16.6668 82.6668 16.2918 82.6668 15.8335V15.0002C82.6668 12.7835 78.2252 11.6668 76.0002 11.6668Z" fill="#1CB4DB"/>
</svg>
